<svg width="223" height="63" viewBox="0 0 223 63" fill="none" xmlns="http://www.w3.org/2000/svg">
<g filter="url(#filter0_b_46_468)">
<rect width="223" height="63" rx="12" fill="url(#paint0_linear_46_468)" fill-opacity="0.1"/>
<rect x="0.25" y="0.25" width="222.5" height="62.5" rx="11.75" stroke="white" stroke-opacity="0.17" stroke-width="0.5"/>
</g>
<path d="M12 44.8713C15.874 43.1677 18.3991 42.5801 22.7273 42.3752C26.9559 42.1751 29.2385 44.1147 33.4545 43.7654C37.8915 43.3979 39.7429 40.7017 44.1818 40.3531C48.4061 40.0214 50.7205 42.4217 54.9091 41.8381C59.6673 41.1752 60.8191 36.4289 65.6364 36.4984C70.6064 36.5702 71.3959 42.6504 76.3636 42.5016C81.9799 42.3334 82.5318 34.1207 87.0909 34.0971C91.65 34.0736 92.9525 39.8151 97.8182 39.6638C104.889 39.4439 103.316 25.8125 108.545 26.8695C113.775 27.9264 112.602 54.3546 119.273 52.9456C125.944 51.5367 127.603 26.8695 130 9" stroke="#4EE39D" stroke-width="0.62201" stroke-linejoin="round"/>
<path d="M158.5 38.6667C158.5 38.5341 158.447 38.4069 158.354 38.3131C158.26 38.2193 158.133 38.1667 158 38.1667C157.867 38.1667 157.74 38.2193 157.646 38.3131C157.553 38.4069 157.5 38.5341 157.5 38.6667V44.8333H154C153.901 44.8334 153.805 44.8628 153.722 44.9177C153.64 44.9727 153.576 45.0507 153.539 45.142C153.501 45.2334 153.491 45.3338 153.51 45.4308C153.529 45.5277 153.577 45.6167 153.647 45.6867L157.647 49.6867C157.74 49.7803 157.868 49.8329 158 49.8329C158.133 49.8329 158.26 49.7803 158.353 49.6867L162.353 45.6867C162.423 45.6167 162.471 45.5277 162.49 45.4308C162.509 45.3338 162.499 45.2334 162.462 45.142C162.424 45.0507 162.36 44.9727 162.278 44.9177C162.195 44.8628 162.099 44.8334 162 44.8333H158.5V38.6667Z" fill="#FF1C45"/>
<path d="M170.728 48.076C170.728 47.5627 170.821 47.1193 171.008 46.746C171.195 46.3633 171.493 46.018 171.904 45.71L175.376 43.078C175.861 42.7233 176.104 42.294 176.104 41.79V41.342C176.104 40.9407 175.969 40.6187 175.698 40.376C175.427 40.1333 175.068 40.012 174.62 40.012H173.332C172.837 40.012 172.441 40.1847 172.142 40.53C171.853 40.866 171.708 41.3187 171.708 41.888H170.672C170.672 41.0387 170.91 40.362 171.386 39.858C171.871 39.3447 172.511 39.088 173.304 39.088H174.62C175.376 39.088 175.983 39.2933 176.44 39.704C176.907 40.1147 177.14 40.6607 177.14 41.342V41.79C177.14 42.574 176.767 43.2413 176.02 43.792L172.646 46.298C172.31 46.5407 172.077 46.7927 171.946 47.054C171.825 47.306 171.764 47.6467 171.764 48.076H177.28V49H170.728V48.076ZM179.319 49.14C179.095 49.14 178.913 49.07 178.773 48.93C178.633 48.79 178.563 48.608 178.563 48.384C178.563 48.16 178.633 47.978 178.773 47.838C178.913 47.698 179.095 47.628 179.319 47.628C179.543 47.628 179.725 47.698 179.865 47.838C180.005 47.978 180.075 48.16 180.075 48.384C180.075 48.608 180.005 48.79 179.865 48.93C179.725 49.07 179.543 49.14 179.319 49.14ZM184.067 49.112C183.273 49.112 182.634 48.874 182.149 48.398C181.663 47.9127 181.421 47.278 181.421 46.494H182.429C182.429 47.0073 182.578 47.418 182.877 47.726C183.175 48.034 183.572 48.188 184.067 48.188H185.411C185.952 48.188 186.386 48.0293 186.713 47.712C187.049 47.3853 187.217 46.956 187.217 46.424V45.556C187.217 45.0613 187.044 44.6647 186.699 44.366C186.363 44.0673 185.919 43.918 185.369 43.918H181.771V39.2H187.889V40.124H182.807V42.994H185.369C186.237 42.994 186.932 43.2273 187.455 43.694C187.987 44.1607 188.253 44.7813 188.253 45.556V46.424C188.253 46.956 188.131 47.4273 187.889 47.838C187.655 48.2393 187.324 48.552 186.895 48.776C186.465 49 185.971 49.112 185.411 49.112H184.067ZM192.798 49.112C192.238 49.112 191.739 48.9813 191.3 48.72C190.871 48.4587 190.535 48.09 190.292 47.614C190.049 47.138 189.928 46.592 189.928 45.976V42.224C189.928 41.608 190.049 41.062 190.292 40.586C190.535 40.11 190.871 39.7413 191.3 39.48C191.739 39.2187 192.238 39.088 192.798 39.088H194.282C194.842 39.088 195.337 39.2187 195.766 39.48C196.195 39.7413 196.527 40.11 196.76 40.586C197.003 41.062 197.124 41.608 197.124 42.224V45.976C197.124 46.592 197.003 47.138 196.76 47.614C196.527 48.09 196.195 48.4587 195.766 48.72C195.337 48.9813 194.842 49.112 194.282 49.112H192.798ZM194.254 48.188C194.805 48.188 195.248 47.9873 195.584 47.586C195.92 47.1753 196.088 46.6387 196.088 45.976V42.224C196.088 41.5613 195.92 41.0293 195.584 40.628C195.248 40.2173 194.805 40.012 194.254 40.012H192.826C192.275 40.012 191.827 40.2173 191.482 40.628C191.137 41.0293 190.964 41.5613 190.964 42.224V45.976C190.964 46.6387 191.137 47.1753 191.482 47.586C191.827 47.9873 192.275 48.188 192.826 48.188H194.254ZM206.945 38.892H207.953L202.689 49.35H201.681L206.945 38.892ZM200.743 45.36C200.173 45.36 199.711 45.1733 199.357 44.8C199.011 44.4173 198.839 43.918 198.839 43.302V41.146C198.839 40.53 199.011 40.0353 199.357 39.662C199.711 39.2793 200.173 39.088 200.743 39.088H201.527C202.096 39.088 202.553 39.2793 202.899 39.662C203.253 40.0353 203.431 40.53 203.431 41.146V43.302C203.431 43.918 203.253 44.4173 202.899 44.8C202.553 45.1733 202.096 45.36 201.527 45.36H200.743ZM201.527 44.562C201.835 44.562 202.082 44.45 202.269 44.226C202.455 43.9927 202.549 43.6847 202.549 43.302V41.146C202.549 40.7633 202.455 40.46 202.269 40.236C202.082 40.0027 201.835 39.886 201.527 39.886H200.743C200.435 39.886 200.187 40.0027 200.001 40.236C199.814 40.46 199.721 40.7633 199.721 41.146V43.302C199.721 43.6847 199.814 43.9927 200.001 44.226C200.187 44.45 200.435 44.562 200.743 44.562H201.527ZM208.023 49.112C207.453 49.112 206.991 48.9253 206.637 48.552C206.291 48.1693 206.119 47.67 206.119 47.054V44.898C206.119 44.282 206.291 43.7873 206.637 43.414C206.991 43.0313 207.453 42.84 208.023 42.84H208.807C209.376 42.84 209.833 43.0313 210.179 43.414C210.533 43.7873 210.711 44.282 210.711 44.898V47.054C210.711 47.67 210.533 48.1693 210.179 48.552C209.833 48.9253 209.376 49.112 208.807 49.112H208.023ZM208.807 48.314C209.115 48.314 209.362 48.202 209.549 47.978C209.735 47.7447 209.829 47.4367 209.829 47.054V44.898C209.829 44.5153 209.735 44.212 209.549 43.988C209.362 43.7547 209.115 43.638 208.807 43.638H208.023C207.715 43.638 207.467 43.7547 207.281 43.988C207.094 44.212 207.001 44.5153 207.001 44.898V47.054C207.001 47.4367 207.094 47.7447 207.281 47.978C207.467 48.202 207.715 48.314 208.023 48.314H208.807Z" fill="white"/>
<defs>
<filter id="filter0_b_46_468" x="-12" y="-12" width="247" height="87" filterUnits="userSpaceOnUse" color-interpolation-filters="sRGB">
<feFlood flood-opacity="0" result="BackgroundImageFix"/>
<feGaussianBlur in="BackgroundImageFix" stdDeviation="6"/>
<feComposite in2="SourceAlpha" operator="in" result="effect1_backgroundBlur_46_468"/>
<feBlend mode="normal" in="SourceGraphic" in2="effect1_backgroundBlur_46_468" result="shape"/>
</filter>
<linearGradient id="paint0_linear_46_468" x1="111.5" y1="0" x2="111.5" y2="63" gradientUnits="userSpaceOnUse">
<stop stop-color="#4EE39D"/>
<stop offset="1" stop-color="#081D1C" stop-opacity="0"/>
</linearGradient>
</defs>
</svg>
