<svg width="120" height="46" viewBox="0 0 120 46" fill="none" xmlns="http://www.w3.org/2000/svg">
<path d="M1 36.8713C4.87396 35.1677 7.39915 34.5801 11.7273 34.3752C15.9559 34.1751 18.2385 36.1147 22.4545 35.7654C26.8915 35.3979 28.7429 32.7017 33.1818 32.3531C37.4061 32.0214 39.7205 34.4217 43.9091 33.8381C48.6673 33.1752 49.8191 28.4289 54.6364 28.4984C59.6064 28.5702 60.3959 34.6504 65.3636 34.5016C70.9799 34.3334 71.5318 26.1207 76.0909 26.0971C80.65 26.0736 81.9525 31.8151 86.8182 31.6638C93.8892 31.4439 92.3159 17.8125 97.5455 18.8695C102.775 19.9264 101.602 46.3546 108.273 44.9456C114.944 43.5367 116.603 18.8695 119 1" stroke="#4EE39D" stroke-width="0.62201" stroke-linejoin="round"/>
</svg>
