<svg width="28" height="28" viewBox="0 0 28 28" fill="none" xmlns="http://www.w3.org/2000/svg">
<g clip-path="url(#clip0_46_530)">
<path d="M14 0C6.28037 0 0 6.28037 0 14C0 21.7197 6.28037 28.0001 14 28.0001C21.7196 28.0001 27.9999 21.7197 27.9999 14C27.9999 6.28037 21.7196 0 14 0ZM14 26.3594C7.18502 26.3594 1.64064 20.815 1.64064 14C1.64064 7.18508 7.18502 1.64064 14 1.64064C20.815 1.64064 26.3594 7.18502 26.3594 14C26.3594 20.815 20.815 26.3594 14 26.3594Z" fill="#F5C635"/>
<path d="M14 3.28125C8.0897 3.28125 3.28125 8.0897 3.28125 14C3.28125 19.9104 8.0897 24.7189 14 24.7189C19.9104 24.7189 24.7189 19.9104 24.7189 14C24.7189 8.0897 19.9104 3.28125 14 3.28125ZM14 23.0782C8.99434 23.0782 4.92189 19.0057 4.92189 14C4.92189 8.99429 8.99434 4.92189 14 4.92189C19.0058 4.92189 23.0782 8.99434 23.0782 14C23.0782 19.0058 19.0057 23.0782 14 23.0782Z" fill="#F5C635"/>
<path d="M19.3211 11.2203L16.84 11.9005L14.6491 9.06852C14.4937 8.8677 14.2541 8.75012 14.0002 8.75012C13.7464 8.75012 13.5068 8.8677 13.3514 9.06852L11.1605 11.9005L8.67931 11.2203C8.39384 11.1421 8.08835 11.2237 7.87993 11.4339C7.67152 11.6441 7.59249 11.9502 7.67316 12.2351L9.18884 17.5854C9.28886 17.9384 9.61119 18.1821 9.97809 18.1821H18.0059C18.3719 18.1821 18.6937 17.9395 18.7945 17.5876L20.3265 12.2373C20.4081 11.9523 20.3296 11.6455 20.1212 11.4347C19.9128 11.2239 19.607 11.142 19.3211 11.2203ZM17.3876 16.5414H10.5984L9.64811 13.1871L11.2564 13.628C11.5769 13.7159 11.9188 13.6017 12.1221 13.3388L14.0002 10.9111L15.8784 13.3388C16.0818 13.6017 16.4238 13.716 16.7441 13.628L18.3477 13.1884L17.3876 16.5414Z" fill="#F5C635"/>
</g>
<defs>
<clipPath id="clip0_46_530">
<rect width="28" height="28" fill="white"/>
</clipPath>
</defs>
</svg>
