<svg width="20" height="20" viewBox="0 0 20 20" fill="none" xmlns="http://www.w3.org/2000/svg">
<g clip-path="url(#clip0_45_446)">
<path d="M10 20C15.5228 20 20 15.5228 20 10C20 4.47715 15.5228 0 10 0C4.47715 0 0 4.47715 0 10C0 15.5228 4.47715 20 10 20Z" fill="#FED056"/>
<path d="M10 18.1484C14.5003 18.1484 18.1484 14.5003 18.1484 10C18.1484 5.49974 14.5003 1.85156 10 1.85156C5.49974 1.85156 1.85156 5.49974 1.85156 10C1.85156 14.5003 5.49974 18.1484 10 18.1484Z" fill="#FEB635"/>
<path d="M18.1484 10C18.1484 14.4922 14.4922 18.1484 10 18.1484C8.53516 18.1484 7.16406 17.7617 5.97656 17.082C7.07031 17.6289 8.30469 17.9375 9.60938 17.9375C14.1016 17.9375 17.7578 14.2812 17.7578 9.78906C17.7578 6.76172 16.0938 4.11328 13.6328 2.71094C16.3086 4.04688 18.1484 6.80859 18.1484 10ZM10.5547 2.23438C12.1602 2.23438 13.6563 2.70312 14.9141 3.50391C13.5469 2.47266 11.8438 1.85547 10 1.85547C5.50781 1.85547 1.85156 5.50781 1.85156 10.0039C1.85156 12.9023 3.375 15.457 5.66406 16.8945C3.6875 15.4062 2.40625 13.043 2.40625 10.3828C2.40625 5.89062 6.0625 2.23438 10.5547 2.23438Z" fill="#FC9924"/>
<path d="M10.7773 6.65625L11.3789 8.50391C11.4531 8.73047 11.668 8.88672 11.9062 8.88672H13.8476C14.3828 8.88672 14.6094 9.57422 14.1719 9.89063L12.6055 11.0273C12.4101 11.168 12.3281 11.418 12.4062 11.6484L13.0078 13.4961C13.1758 14.0078 12.5859 14.4336 12.1562 14.1172L10.5859 12.9766C10.3906 12.8359 10.1289 12.8359 9.93358 12.9766L8.36326 14.1172C7.92576 14.4336 7.34373 14.0078 7.5117 13.4961L8.11326 11.6484C8.18748 11.4219 8.10545 11.168 7.91404 11.0273L6.32811 9.88672C5.89061 9.57031 6.11717 8.88281 6.65233 8.88281H8.59373C8.83201 8.88281 9.04686 8.72656 9.12108 8.5L9.72264 6.65235C9.8867 6.14453 10.6133 6.14453 10.7773 6.65625Z" fill="#FC9924"/>
<path d="M10.2812 6.16016L10.8828 8.00781C10.957 8.23438 11.1719 8.39062 11.4101 8.39062H13.3515C13.8867 8.39062 14.1133 9.07812 13.6758 9.39453L12.1055 10.5352C11.9101 10.6758 11.8281 10.9258 11.9062 11.1562L12.5078 13.0039C12.6758 13.5156 12.0859 13.9414 11.6562 13.625L10.0859 12.4844C9.89061 12.3438 9.62889 12.3438 9.43358 12.4844L7.85154 13.625C7.41404 13.9414 6.83201 13.5156 6.99998 13.0039L7.60154 11.1562C7.67576 10.9297 7.59373 10.6758 7.40233 10.5352L5.83201 9.39453C5.39451 9.07812 5.62108 8.39062 6.15623 8.39062H8.09764C8.33592 8.39062 8.55076 8.23438 8.62498 8.00781L9.22654 6.16016C9.3867 5.64844 10.1133 5.64844 10.2812 6.16016Z" fill="#FED056"/>
</g>
<defs>
<clipPath id="clip0_45_446">
<rect width="20" height="20" fill="white"/>
</clipPath>
</defs>
</svg>
