<svg width="22" height="22" viewBox="0 0 22 22" fill="none" xmlns="http://www.w3.org/2000/svg">
<path d="M21.4955 7.51666C21.4955 7.47083 21.4497 7.47083 21.4497 7.425L16.9122 2.10833C16.9122 2.10833 16.9122 2.10833 16.8663 2.10833C16.8205 2.0625 16.8205 2.0625 16.7747 2.0625C16.7288 2.0625 16.7288 2.01666 16.683 2.01666C16.683 2.01666 16.683 2.01666 16.6372 2.01666C16.5913 2.01666 16.5913 2.01666 16.5455 2.01666H16.4997H5.40801H5.36217C5.31634 2.01666 5.31634 2.01666 5.27051 2.01666C5.27051 2.01666 5.27051 2.01666 5.22467 2.01666C5.17884 2.01666 5.17884 2.0625 5.13301 2.0625C5.08717 2.0625 5.08717 2.10833 5.04134 2.10833C5.04134 2.10833 5.04134 2.10833 4.99551 2.10833L0.549674 7.425C0.549674 7.425 0.503841 7.47083 0.503841 7.51666L0.458008 7.5625C0.458008 7.65416 0.458008 7.79166 0.503841 7.88333C0.503841 7.88333 0.503841 7.92916 0.549674 7.92916C0.549674 7.975 0.595508 7.975 0.595508 8.02083L10.6788 19.8917H10.7247C10.7705 19.9375 10.8163 19.9375 10.8163 19.9833H10.8622C10.908 19.9833 10.9538 20.0292 11.0455 20.0292C11.0913 20.0292 11.183 20.0292 11.2288 19.9833H11.2747C11.3205 19.9833 11.3663 19.9375 11.3663 19.8917L21.4497 8.02083C21.4497 8.02083 21.4955 7.975 21.4955 7.92916L21.5413 7.88333C21.5872 7.79166 21.5872 7.65416 21.5413 7.5625C21.4955 7.51666 21.4955 7.51666 21.4955 7.51666ZM5.22467 3.34583L6.46217 7.24166H1.87884L5.22467 3.34583ZM14.2538 8.15833L10.9997 18.1042L7.74551 8.15833H14.2538ZM8.02051 7.24166L10.9997 3.20833L13.9788 7.2875H8.02051V7.24166ZM11.9163 2.8875H15.9497L14.758 6.7375L11.9163 2.8875ZM7.24134 6.7375L6.04967 2.8875H10.083L7.24134 6.7375ZM6.78301 8.15833L9.85384 17.4625L1.92467 8.15833H6.78301ZM15.2163 8.15833H20.0747L12.1455 17.5083L15.2163 8.15833ZM15.5372 7.24166L16.7747 3.34583L20.1205 7.24166H15.5372Z" fill="#C1CCF7"/>
</svg>
