<svg width="24" height="24" viewBox="0 0 24 24" fill="none" xmlns="http://www.w3.org/2000/svg">
<path d="M6.51677 9.40125C6.14402 9.40125 5.84177 9.7035 5.84177 10.0762C5.84177 10.449 6.14402 10.7512 6.51677 10.7512H13.7543C14.127 10.7512 14.4293 10.449 14.4293 10.0762C14.4293 9.7035 14.127 9.40125 13.7543 9.40125H6.51677Z" fill="white"/>
<path d="M9.77102 13.233H6.51677C6.14402 13.233 5.84177 13.5353 5.84177 13.908C5.84177 14.2808 6.14402 14.583 6.51677 14.583H9.77102C10.1438 14.583 10.446 14.2808 10.446 13.908C10.446 13.5353 10.1438 13.233 9.77102 13.233Z" fill="white"/>
<path d="M9.67126 21.825H4.53376C3.42901 21.825 2.53126 20.9235 2.53126 19.815V6.14251C2.53126 5.03401 3.42901 4.13251 4.53376 4.13251H5.92801V4.30201C5.92801 5.28676 6.72901 6.08701 7.71376 6.08701H14.1638C15.1485 6.08701 15.9495 5.28676 15.9495 4.30201V4.13251H17.337C18.4598 4.13251 19.3388 5.01526 19.3388 6.14251V9.99001C19.3388 10.3628 19.641 10.665 20.0138 10.665C20.3865 10.665 20.6888 10.3628 20.6888 9.99001V6.14251C20.6888 4.29001 19.185 2.78251 17.3363 2.78251H15.9488V2.61001C15.9488 1.62526 15.1478 0.825012 14.163 0.825012H7.71301C6.72826 0.825012 5.92726 1.62526 5.92726 2.61001V2.78251H4.53376C2.68501 2.78251 1.18051 4.29001 1.18051 6.14251V19.815C1.18051 21.6675 2.68501 23.175 4.53376 23.175H9.67126C10.044 23.175 10.3463 22.8728 10.3463 22.5C10.3463 22.1273 10.044 21.825 9.67126 21.825ZM7.27876 2.61001C7.27876 2.37001 7.47376 2.17501 7.71376 2.17501H14.1638C14.4038 2.17501 14.5988 2.37001 14.5988 2.61001V4.30126C14.5988 4.54126 14.4038 4.73626 14.1638 4.73626H7.71376C7.47376 4.73626 7.27876 4.54126 7.27876 4.30126V2.61001Z" fill="white"/>
<path d="M22.1025 13.0185C21.1785 12.0937 19.5653 12.093 18.6405 13.0185L12.6563 19.0027C12.4635 19.1955 12.3375 19.44 12.2918 19.7092L11.9633 21.651C11.8935 22.0672 12.0308 22.4947 12.3293 22.7925C12.576 23.0392 12.9098 23.1742 13.2525 23.1742C13.3253 23.1742 13.3973 23.1682 13.4693 23.1562L15.4103 22.8285C15.6795 22.7827 15.924 22.6567 16.1168 22.464L22.101 16.4797C23.0558 15.5257 23.0558 13.9732 22.1025 13.0185ZM15.186 21.498L13.2953 21.8752L13.6118 19.9575L17.901 15.6682L19.4543 17.2215L15.186 21.498ZM21.147 15.525L20.4075 16.266L18.855 14.7135L19.5953 13.9732C19.8023 13.7662 20.0783 13.6515 20.3708 13.6515C20.6648 13.6515 20.94 13.7655 21.147 13.9732C21.5753 14.4015 21.5753 15.0967 21.147 15.525Z" fill="white"/>
</svg>
