<svg width="16" height="16" viewBox="0 0 16 16" fill="none" xmlns="http://www.w3.org/2000/svg">
<g clip-path="url(#clip0_363_11643)">
<path d="M14.1234 8.5831V6.59604H14.592C14.8509 6.59604 15.0607 6.38623 15.0607 6.12742V4.28414C15.0607 3.50892 14.43 2.87823 13.6548 2.87823H11.9491C12.7208 1.56227 11.7313 -0.0682596 10.2261 0.00224022C9.5555 0.0332089 8.96378 0.403833 8.64265 0.994676L7.95216 2.27264L7.26119 0.993645C6.94066 0.403833 6.34891 0.0332089 5.67829 0.00224022C4.17316 -0.0679471 3.18329 1.56183 3.95526 2.87823H2.3451C1.56989 2.87823 0.939201 3.50892 0.939201 4.28414V6.12745C0.939201 6.38626 1.14901 6.59607 1.40783 6.59607H1.87645V9.43913H0.470577C0.211765 9.43913 0.00195312 9.64894 0.00195312 9.90775V15.5314C0.00195312 15.7902 0.211765 16 0.470577 16H2.3451C2.57526 16 2.76629 15.8339 2.80582 15.6152C3.72426 15.8668 4.71979 16 5.68997 16H9.8745C10.8982 16 11.8761 15.5127 12.4927 14.6959C12.5022 14.6843 15.7081 10.7628 15.7172 10.7508C15.9009 10.5059 15.998 10.2144 15.998 9.90775C15.998 8.94725 15.045 8.2566 14.1234 8.5831ZM1.87648 11.7823V15.0627H0.939201V10.3764H1.87648V11.7823ZM13.6548 3.81551C13.9132 3.81551 14.1234 4.02573 14.1234 4.28414V5.65879H9.40584V3.81548C9.55381 3.81551 13.5115 3.81551 13.6548 3.81551ZM13.1862 6.59607V9.34153L11.2224 11.3833C11.0499 10.8019 10.5111 10.3764 9.8745 10.3764H9.40587V6.59607H13.1862ZM9.46672 1.44117C9.62928 1.14208 9.92931 0.954176 10.2693 0.938457C11.0094 0.904207 11.5232 1.68964 11.1623 2.3657C10.991 2.68661 10.6738 2.8782 10.3138 2.8782C10.1175 2.8782 8.87322 2.8782 8.69031 2.8782L9.46672 1.44117ZM7.53131 3.81551C7.88019 3.81551 8.12872 3.81551 8.46859 3.81551V10.3764H7.70956C7.64959 10.3764 7.59003 10.3719 7.53131 10.3634V3.81551ZM5.58916 0.937426C5.60441 0.937426 5.61972 0.93777 5.63507 0.938488C5.9751 0.954207 6.27516 1.14211 6.43716 1.44021L7.21413 2.87827C6.4861 2.87827 6.04669 2.87827 5.5906 2.87827C5.23057 2.87823 4.91338 2.68667 4.7421 2.36574C4.38879 1.70392 4.87326 0.937426 5.58916 0.937426ZM1.87648 5.65879V4.28414C1.87648 4.02573 2.0867 3.81551 2.3451 3.81551C2.37976 3.81551 6.53838 3.81551 6.59407 3.81551V5.65882L1.87648 5.65879ZM6.59403 6.59607V9.83769C6.04472 9.45582 5.38632 9.2481 4.70388 9.2481C4.02145 9.2481 3.36301 9.45582 2.81373 9.83769V6.59607H6.59403ZM14.9722 10.1818L11.7611 14.1101C11.757 14.1151 11.753 14.1202 11.749 14.1255C11.3088 14.7124 10.6081 15.0628 9.8745 15.0628H5.69C4.62885 15.0628 3.75338 14.9086 2.81376 14.6445V11.7823V11.0569L3.14032 10.7695C4.03169 9.9851 5.37607 9.9851 6.26747 10.7695C6.66813 11.1221 7.18453 11.3137 7.70956 11.3137H9.8745C10.1329 11.3137 10.3431 11.5239 10.3431 11.7823C10.3431 12.0407 10.1329 12.2509 9.8745 12.2509H6.54388C6.28507 12.2509 6.07525 12.4607 6.07525 12.7196C6.07525 12.9784 6.28507 13.1882 6.54388 13.1882H10.1886C10.5759 13.1882 10.9496 13.0262 11.2144 12.7436C11.3323 12.6211 14.1438 9.69794 14.2439 9.59388C14.2447 9.593 14.2454 9.59203 14.2462 9.59116C14.2471 9.59022 14.2481 9.58941 14.249 9.58847C14.5366 9.27972 15.0607 9.48153 15.0607 9.90775C15.0607 10.0073 15.0301 10.1018 14.9722 10.1818Z" fill="#ECAC1A"/>
</g>
<defs>
<clipPath id="clip0_363_11643">
<rect width="16" height="16" fill="white"/>
</clipPath>
</defs>
</svg>
