<svg width="70" height="70" viewBox="0 0 70 70" fill="none" xmlns="http://www.w3.org/2000/svg">
<g clip-path="url(#clip0_363_12477)">
<path d="M47.4277 20.9316L35 34.002V1.49024C36.7363 1.47657 38.3223 2.46094 39.0879 4.01953L46.375 18.7852C46.3887 18.8125 46.4023 18.8398 46.416 18.8809L47.4277 20.9316Z" fill="#FAF180"/>
<path d="M22.5723 20.9316L35 34.002V1.49024C33.2637 1.47657 31.6777 2.46094 30.9121 4.01953L23.625 18.7852C23.6113 18.8125 23.5977 18.8398 23.584 18.8809L22.5723 20.9316Z" fill="#FFAA39"/>
<path d="M69.5762 26.2363L35 34.002L47.4277 20.9316L49.6836 21.2598C49.7109 21.2598 49.7656 21.2734 49.793 21.2734L66.1035 23.6523C67.6211 23.8711 68.9336 24.8418 69.5762 26.2363Z" fill="#FFC943"/>
<path d="M68.6191 31.418L56.834 42.916L55.125 44.584L35 34.002L69.5762 26.2363C70.3965 27.9863 70.0137 30.0645 68.6191 31.418Z" fill="#FFAA39"/>
<path d="M56.7246 67.4434L35 34.002L55.1113 44.584L55.5215 46.9355L58.2969 63.1777C58.584 64.7773 57.9824 66.418 56.7246 67.4434Z" fill="#FFC943"/>
<path d="M56.7246 67.4434C55.3164 68.6328 53.3203 68.8379 51.707 67.9766L37.1328 60.3066C37.1055 60.293 37.0645 60.2793 37.0234 60.2656L35 59.1992V34.002L56.7246 67.4434Z" fill="#FFAA39"/>
<path d="M35 34.002V59.1992L32.9766 60.2656C32.9492 60.2793 32.8945 60.293 32.8672 60.3066L18.293 67.9766C16.666 68.8516 14.6836 68.6328 13.2754 67.4434L35 34.002Z" fill="#FAF180"/>
<path d="M35 34.002L13.2891 67.4434C12.0313 66.418 11.416 64.7773 11.7031 63.1777L14.4785 46.9355L14.8887 44.584L35 34.002Z" fill="#FFC943"/>
<path d="M34.9999 34.002L14.8886 44.584L13.1796 42.916L1.39443 31.418C-0.000102386 30.0781 -0.382915 28 0.437398 26.2363L34.9999 34.002Z" fill="#FFAA39"/>
<path d="M35 34.002L0.423828 26.2363C1.06641 24.8418 2.37891 23.8711 3.89648 23.6523L20.1934 21.2871C20.2207 21.2871 20.2754 21.2734 20.3027 21.2734L22.5586 20.9453L35 34.002Z" fill="#FFC943"/>
</g>
<defs>
<clipPath id="clip0_363_12477">
<rect width="70" height="70" fill="white"/>
</clipPath>
</defs>
</svg>
