<svg width="26" height="26" viewBox="0 0 26 26" fill="none" xmlns="http://www.w3.org/2000/svg">
<path d="M1.66447 14.183L1.23807 17.043C1.22665 17.1219 1.23626 17.2024 1.26593 17.2764C1.29561 17.3503 1.3443 17.4151 1.40707 17.4642L6.12607 21.151C6.16239 21.1787 6.20272 21.2006 6.24567 21.216H6.25867C6.30249 21.2295 6.34804 21.2365 6.39387 21.2368C6.41546 21.2394 6.43728 21.2394 6.45887 21.2368C6.48723 21.2314 6.51507 21.2236 6.54207 21.2134H6.55767L6.61747 21.1822L6.64607 21.1614L6.67987 21.138L12.3583 16.1798L20.8603 18.6758C20.8975 18.6861 20.936 18.6913 20.9747 18.6914C21.0084 18.6953 21.0424 18.6953 21.0761 18.6914C21.1064 18.6837 21.136 18.6733 21.1645 18.6602C21.1891 18.6485 21.2126 18.6346 21.2347 18.6186C21.2422 18.6124 21.2492 18.6054 21.2555 18.5978C21.2794 18.5805 21.3012 18.5604 21.3205 18.538L24.6095 14.4898C24.6668 14.4164 24.7001 14.327 24.7048 14.2339C24.7094 14.1409 24.6852 14.0486 24.6355 13.9698L22.8155 11.206L22.7843 11.18L22.7583 11.1488C22.7448 11.1337 22.73 11.1197 22.7141 11.1072L22.6959 11.0916C22.6735 11.0739 22.6491 11.0591 22.6231 11.0474H22.5945C22.5785 11.0407 22.562 11.0355 22.5451 11.0318L19.2405 10.1608L19.3341 10.0802C19.3814 10.0385 19.4196 9.98737 19.446 9.93006C19.4724 9.87274 19.4865 9.81053 19.4875 9.74743C19.4889 9.68457 19.4768 9.62213 19.4522 9.5643C19.4275 9.50646 19.3908 9.45455 19.3445 9.41203L16.9629 7.20203C16.9407 7.18384 16.9173 7.16733 16.8927 7.15263H16.8771L12.9771 5.11163C12.8986 5.07116 12.8101 5.05453 12.7223 5.06377C12.6345 5.073 12.5514 5.10772 12.4831 5.16363L1.82047 13.9022C1.7349 13.9728 1.67917 14.0731 1.66447 14.183ZM2.44447 15.0852L5.39287 17.264L5.78287 19.7392L2.16627 16.9L2.44447 15.0852ZM15.2157 13.6838L19.7605 14.95L20.3767 17.5968L13.1591 15.4804L15.2157 13.6838ZM21.2165 17.2484L20.6211 14.6874L22.4151 12.22L23.7151 14.1674L21.2165 17.2484ZM18.4943 10.8992L21.6793 11.713L19.9555 14.0738L16.0165 12.9766L18.4215 10.8732C18.4447 10.8846 18.4691 10.8933 18.4943 10.8992ZM6.71887 19.9212L6.28987 17.186L16.6405 8.13543L18.3591 9.73183L6.71887 19.9212ZM12.7951 6.02683L15.8605 7.62583L5.78287 16.4372L2.81627 14.248L12.7951 6.02683Z" fill="#C1CCF7"/>
</svg>
