<svg width="1440" height="866" viewBox="0 0 1440 866" fill="none" xmlns="http://www.w3.org/2000/svg">
<g opacity="0.3">
<path opacity="0.8" d="M1400.08 1.2888C1397.1 -0.429599 1392.28 -0.429599 1389.3 1.2888C1387.06 2.58 1386.51 4.4736 1387.63 6.06479L1220.77 102.403L1220.77 224.008L1180.12 247.478L1180.12 379.751L1040.87 460.144L1019.18 447.616L1126.55 385.624L1126.55 313.115L1126.13 312.868L1004.04 242.385V217.795L1073.08 177.933C1076.06 179.179 1080.24 179.04 1082.92 177.492C1085.9 175.773 1085.9 172.987 1082.92 171.269C1079.95 169.55 1075.12 169.55 1072.14 171.269C1069.46 172.819 1069.22 175.229 1071.38 176.949L1002.33 216.811V243.369L1002.76 243.616L1124.84 314.099L1124.84 384.64L1043.71 431.481L1043.72 401.272L1080.91 379.799C1083.89 381.045 1088.06 380.906 1090.75 379.355C1093.72 377.637 1093.72 374.851 1090.75 373.135C1087.77 371.416 1082.94 371.416 1079.97 373.135C1077.28 374.683 1077.04 377.095 1079.2 378.815L1042.01 400.288L1042 432.467L1017.46 446.634L988.448 429.882L988.45 377.272L1043.18 345.671L1043.18 309.304L1042.76 309.057L927.541 242.539C929.698 240.818 929.458 238.408 926.773 236.86C923.797 235.142 918.971 235.142 915.995 236.86C913.018 238.579 913.018 241.365 915.995 243.084C918.678 244.632 922.854 244.771 925.832 243.528L1041.47 310.291V344.69L988.45 375.302V339.04L988.023 338.793L917.533 298.096C919.69 296.376 919.45 293.966 916.765 292.416C913.789 290.697 908.962 290.697 905.987 292.416C903.01 294.134 903.01 296.92 905.987 298.639C908.67 300.189 912.846 300.326 915.824 299.083L986.742 340.024L986.739 428.896L966.358 417.129L932.778 436.516L902.362 418.955V376.286L901.935 376.039L821.531 329.618V289.394C823.187 289.286 824.797 288.885 826.067 288.153C829.043 286.435 829.043 283.648 826.067 281.93C823.091 280.212 818.264 280.212 815.288 281.93C812.312 283.648 812.312 286.435 815.288 288.153C816.558 288.888 818.168 289.288 819.824 289.394L819.822 330.602L820.249 330.849L900.654 377.27V417.969L769.796 342.417L769.799 262.329L840.769 221.354L905.898 221.352L906.095 221.239L1017.85 156.717C1020.83 157.963 1025 157.824 1027.69 156.273C1030.66 154.555 1030.66 151.769 1027.69 150.05C1024.71 148.332 1019.89 148.332 1016.91 150.05C1014.23 151.601 1013.99 154.01 1016.14 155.731L905.437 219.645L843.721 219.648L1049.03 101.114C1052.01 102.36 1056.18 102.221 1058.87 100.67C1061.84 98.9518 1061.84 96.1654 1058.87 94.447C1055.89 92.7286 1051.06 92.7286 1048.09 94.447C1045.4 95.9974 1045.16 98.407 1047.32 100.128L768.088 261.343L768.085 343.399L768.512 343.646L931.066 437.495L898.347 456.386L620.817 296.152L620.819 200.541L620.392 200.294L526.031 145.809C528.186 144.089 527.949 141.679 525.263 140.129C522.287 138.41 517.461 138.41 514.485 140.129C511.509 141.847 511.509 144.633 514.485 146.352C517.168 147.902 521.344 148.039 524.322 146.796L619.129 201.532L619.127 297.144L619.554 297.391L896.658 457.377L865.511 475.36L591.054 316.9H427.379L325.082 257.839L325.084 167.076C326.162 166.867 327.184 166.531 328.043 166.034C331.019 164.316 331.019 161.529 328.043 159.811C325.067 158.093 320.241 158.093 317.265 159.811C314.289 161.529 314.289 164.316 317.265 166.034C318.938 167.001 321.194 167.402 323.378 167.282L323.375 258.823L323.803 259.07L426.921 318.607L590.596 318.604L822.284 452.37L775.684 452.373L696.611 406.72H635.699L635.502 406.835L551.027 455.606C548.049 454.36 543.873 454.499 541.19 456.05C538.214 457.768 538.214 460.554 541.19 462.273C544.166 463.991 548.992 463.991 551.968 462.273C554.651 460.722 554.891 458.313 552.733 456.592L636.157 408.429H696.15L775.225 454.082L825.239 454.079L863.807 476.346L780.668 524.346L757.028 510.698V474.873L696.973 440.2C699.131 438.479 698.891 436.07 696.208 434.519C693.232 432.801 688.405 432.801 685.429 434.519C682.453 436.238 682.453 439.024 685.429 440.742C688.112 442.293 692.289 442.43 695.269 441.186L755.324 475.859V509.714L691.28 472.737H660.949L660.753 472.852L624.597 493.727C621.618 492.482 617.442 492.621 614.757 494.169C611.781 495.887 611.781 498.674 614.757 500.392C617.733 502.11 622.559 502.11 625.535 500.392C628.218 498.842 628.458 496.432 626.301 494.711L661.408 474.443H690.82L778.964 525.333L762.949 534.577L814.052 564.081L790.127 577.893H753.937L728.044 562.945C730.108 561.229 729.829 558.861 727.182 557.332C724.206 555.613 719.38 555.613 716.404 557.332C713.428 559.05 713.428 561.837 716.404 563.555C719.125 565.125 723.373 565.242 726.359 563.941L753.479 579.599H787.17L726.148 614.831L582.575 531.938L479.265 531.94L479.068 532.055L420.902 565.636C417.923 564.39 413.745 564.529 411.062 566.077C408.086 567.796 408.086 570.582 411.062 572.301C414.038 574.019 418.864 574.019 421.84 572.301C424.523 570.75 424.763 568.341 422.608 566.62L479.726 533.644L582.117 533.642L692.852 597.575H645.455L599.123 570.827C601.281 569.106 601.041 566.697 598.357 565.146C595.381 563.428 590.555 563.428 587.579 565.146C584.603 566.865 584.603 569.651 587.579 571.369C590.262 572.92 594.438 573.057 597.417 571.813L644.994 599.281H695.807L724.444 615.815L651.551 657.899L418.595 657.901L237.614 553.413C239.772 551.692 239.532 549.282 236.848 547.732C233.872 546.013 229.046 546.013 226.07 547.732C223.094 549.45 223.094 552.237 226.07 553.955C228.753 555.505 232.929 555.642 235.91 554.397L418.137 659.608L648.596 659.605L619.681 676.3L447.239 676.302L447.042 676.417L362.001 725.516C359.023 724.271 354.847 724.41 352.161 725.958C349.185 727.676 349.185 730.463 352.161 732.181C355.137 733.9 359.963 733.9 362.939 732.181C365.623 730.631 365.863 728.221 363.707 726.5L447.7 678.008L620.145 678.006L620.341 677.891L815.763 565.065L837.462 577.593L632.003 696.215H481.746L481.55 696.33L300.055 801.116L48.6143 801.119L0 773.053V775.023L48.1463 802.82L300.504 802.818L300.7 802.703L414.597 736.945L414.595 775.866L339.52 819.212C336.542 817.967 332.366 818.106 329.68 819.654C326.704 821.372 326.704 824.159 329.68 825.877C332.656 827.595 337.483 827.595 340.459 825.877C343.142 824.327 343.382 821.917 341.227 820.196L416.301 776.85L416.303 736.187H415.912L482.195 697.919H632.452L632.649 697.804L839.159 578.577L863.802 592.804L463.101 824.147L463.098 865.947H464.805V825.131L865.508 593.788L895.959 611.37L689.262 730.708V752.041L652.617 773.2V822.267L581.548 863.295C578.569 862.052 574.393 862.189 571.71 863.739C570.623 864.368 569.941 865.139 569.649 865.947H584.509C584.291 865.359 583.89 864.788 583.252 864.279L654.321 823.251V774.184L689.26 754.012L689.257 832.59L709.88 844.496L672.724 865.947H676.134L711.589 845.478L747.044 865.947H750.455L690.966 831.601L690.968 731.689L897.663 612.352L925.383 628.357L779.108 712.808C776.13 711.563 771.954 711.702 769.268 713.25C766.292 714.968 766.292 717.755 769.268 719.473C772.244 721.192 777.071 721.192 780.047 719.473C782.73 717.923 782.97 715.513 780.815 713.792L927.09 629.341L953.85 644.793L778.878 745.811H731.324C731.044 744.983 730.348 744.193 729.239 743.555C726.263 741.836 721.436 741.836 718.46 743.555C715.484 745.273 715.484 748.06 718.46 749.776C721.436 751.494 726.263 751.494 729.239 749.776C730.35 749.135 731.044 748.345 731.324 747.517H779.334L779.533 747.402L955.556 645.777L966.361 652.014L974.674 647.214L1016.6 671.418V705.102L981.961 725.099V725.008H927.61L927.414 725.123L867.776 759.556C864.798 758.31 860.622 758.449 857.939 760C854.963 761.718 854.963 764.504 857.939 766.22C860.915 767.939 865.741 767.939 868.717 766.22C871.4 764.67 871.64 762.26 869.483 760.54L928.069 726.714H979.165L877.343 785.5C874.352 784.153 870.042 784.254 867.291 785.843C864.315 787.561 864.315 790.348 867.291 792.066C870.267 793.784 875.094 793.784 878.07 792.066C880.688 790.554 880.998 788.216 879.008 786.508L1006.01 713.183V729.39L930.45 773.017V803.819L868.931 839.336C865.952 838.091 861.776 838.23 859.091 839.778C856.115 841.496 856.115 844.283 859.091 846.001C862.067 847.719 866.893 847.719 869.869 846.001C872.552 844.451 872.792 842.041 870.637 840.32L932.158 804.8V773.999L1007.72 730.372V712.194L1018.3 706.084V670.432L976.381 646.228L1003.93 630.321L1090.2 680.125L1090.19 736.746L1031.62 770.564C1028.63 769.218 1024.32 769.321 1021.57 770.908C1018.59 772.626 1018.59 775.412 1021.57 777.131C1024.54 778.849 1029.37 778.849 1032.35 777.131C1034.96 775.619 1035.27 773.284 1033.29 771.572L1090.2 738.716L1090.19 784.453L1045.23 810.409L1045.23 865.947H1046.94L1046.94 811.398L1090.19 786.426L1090.19 865.947H1091.9L1091.9 679.144L1005.64 629.339L1036.57 611.478L1149.32 676.573L1149.31 831.603L1203.51 862.895V865.947H1205.22V861.908L1151.02 830.617L1151.03 675.587L1038.28 610.492L1061.21 597.253L1213.37 685.103L1213.37 817.376L1297.49 865.947H1300.9L1215.07 816.395L1215.07 684.121L1062.91 596.272L1100.07 574.818L1353.24 720.98L1353.24 786.8L1440 836.891V834.92L1354.94 785.814L1354.94 719.994L1212.55 637.78H1325.16L1440 704.082V702.112L1325.62 636.073H1209.59L1101.78 573.829L1144.96 548.893L1237.64 602.399L1386.44 602.397L1440 633.323V631.353L1428.26 624.575H1440V622.869H1425.3L1386.9 600.695L1238.1 600.697L1212.16 585.726H1275.42L1275.62 585.611L1307.35 567.289L1439.56 567.287L1440 567.539V565.581L1310.31 565.583L1346.04 544.957C1349.01 546.203 1353.19 546.064 1355.87 544.513C1358.85 542.795 1358.85 540.009 1355.87 538.293C1352.9 536.574 1348.07 536.574 1345.09 538.293C1342.41 539.843 1342.17 542.253 1344.33 543.974L1274.97 584.017H1209.21L1146.67 547.912L1169.78 534.57L1154.91 525.986H1198.14L1254.65 558.606C1252.49 560.327 1252.73 562.737 1255.41 564.287C1258.39 566.005 1263.21 566.005 1266.19 564.287C1269.17 562.569 1269.17 559.782 1266.19 558.064C1263.51 556.513 1259.33 556.374 1256.35 557.62L1198.6 524.277H1151.96L1120.33 506.018L1139.78 494.79H1174.28L1204.61 477.28H1227.24L1278.36 506.79C1276.06 508.516 1276.25 510.988 1278.99 512.567C1281.96 514.286 1286.79 514.286 1289.77 512.567C1292.74 510.849 1292.74 508.062 1289.77 506.344C1287.13 504.825 1283.06 504.654 1280.09 505.823L1227.7 475.574H1204.15L1173.83 493.084H1142.74L1204.92 457.187H1238.49L1308.46 497.589H1440V495.882L1308.91 495.885L1238.94 455.483H1204.45L1204.25 455.598L1118.63 505.036L1096.16 492.064L1192.92 436.199H1261.16L1317.46 468.705H1440V466.998L1317.92 467.001L1264.57 436.202L1440 436.199V434.493L1192.46 434.495L1192.27 434.61L1094.46 491.08L1068.93 476.342L1203.86 398.443L1440 398.44V396.734L1267.92 396.736L1440 297.384V295.416L1264.51 396.736H1205.1L1333.02 322.876V306.597L1394.24 271.257C1397.22 272.503 1401.39 272.364 1404.07 270.813C1407.05 269.095 1407.05 266.308 1404.07 264.59C1401.1 262.872 1396.27 262.872 1393.3 264.59C1390.61 266.14 1390.37 268.55 1392.53 270.271L1359.2 289.514V244.903L1440 198.256V196.286L1357.5 243.919V290.498L1331.32 305.611V321.89L1202.35 396.355L1202.77 397.096L1067.22 475.355L1042.58 461.126L1181.83 380.733L1181.83 248.46L1440 99.4102V97.4398L1222.48 223.027L1222.48 103.389L1388.96 7.27199C1389.08 7.35119 1389.17 7.43759 1389.3 7.51199C1392.28 9.23039 1397.1 9.23039 1400.08 7.51199C1403.05 5.7936 1403.05 3.00719 1400.08 1.2888ZM1166.37 534.57L966.361 650.046L766.359 534.575L966.368 419.099L1166.37 534.57Z" fill="url(#paint0_linear_1_3886)"/>
<path opacity="0.1" d="M1440 208.212L1404.44 228.739L1404.44 294.878L1088.61 477.22L1064.61 463.365L1227.53 369.302V352.485L1256.41 335.807V297.131L1312.43 264.792C1314.77 265.773 1318.07 265.663 1320.18 264.441C1322.53 263.087 1322.53 260.892 1320.18 259.536C1317.84 258.182 1314.03 258.182 1311.68 259.536C1309.57 260.757 1309.38 262.658 1311.08 264.014L1255.07 296.354V335.03L1227.53 350.93V288.998L1227.19 288.803L1211.27 279.614L1306.78 224.474V162.465L1374.62 123.295C1376.97 124.277 1380.26 124.169 1382.38 122.945C1384.72 121.591 1384.72 119.395 1382.38 118.039C1380.03 116.685 1376.23 116.685 1373.88 118.039C1371.77 119.261 1371.58 121.159 1373.28 122.515L1305.43 161.685V223.694L1209.93 278.831L1054.66 189.187L1054.66 119.822C1055.97 119.738 1057.24 119.421 1058.24 118.843C1060.58 117.489 1060.59 115.293 1058.24 113.94C1055.9 112.586 1052.09 112.586 1049.75 113.94C1047.4 115.293 1047.4 117.489 1049.75 118.843C1050.75 119.421 1052.02 119.738 1053.32 119.822V189.962L1053.66 190.156L1147.05 244.077H1078.99L1023.95 212.304C1025.65 210.948 1025.46 209.049 1023.35 207.828C1021 206.474 1017.2 206.474 1014.85 207.828C1012.51 209.181 1012.51 211.377 1014.85 212.733C1016.97 213.955 1020.26 214.063 1022.6 213.084L1078.62 245.426H1149.34V245.407L1226.18 289.771V368.519L1063.27 462.58L1041.42 449.968L1156.71 383.402C1159.06 384.383 1162.35 384.273 1164.47 383.054C1166.81 381.7 1166.81 379.504 1164.47 378.148C1162.12 376.795 1158.32 376.795 1155.97 378.148C1153.86 379.37 1153.67 381.271 1155.37 382.624L1040.07 449.188L1018.98 437.01L1156.89 357.388H1194.37C1194.6 358.039 1195.14 358.663 1196.02 359.169C1198.36 360.523 1202.17 360.523 1204.51 359.169C1206.86 357.815 1206.86 355.617 1204.51 354.263C1202.17 352.91 1198.36 352.91 1196.02 354.263C1195.14 354.767 1194.6 355.391 1194.37 356.044H1156.53L1156.37 356.135L1017.63 436.238L1009.12 431.322L1008.78 431.514L1002.56 435.102L969.522 416.025V389.476L996.822 373.713V373.785H1039.66L1086.82 346.557C1089.17 347.539 1092.46 347.428 1094.57 346.207C1096.92 344.853 1096.92 342.657 1094.57 341.301C1092.23 339.947 1088.42 339.947 1086.08 341.301C1083.96 342.523 1083.77 344.423 1085.47 345.777L1039.3 372.436L999.03 372.439L1079.28 326.104C1081.64 327.165 1085.04 327.086 1087.2 325.833C1089.55 324.479 1089.55 322.283 1087.2 320.93C1084.86 319.576 1081.05 319.576 1078.71 320.93C1076.64 322.12 1076.4 323.961 1077.97 325.31L977.864 383.104V370.329L1037.42 335.944V311.668L1085.91 283.672C1088.26 284.654 1091.55 284.543 1093.66 283.322C1096.01 281.968 1096.01 279.772 1093.66 278.416C1091.32 277.063 1087.51 277.063 1085.17 278.416C1083.05 279.638 1082.86 281.539 1084.56 282.895L1036.07 310.891V335.167L976.518 369.551V383.879L968.175 388.696L968.173 416.8L1001.21 435.878L979.503 448.413L911.511 409.156L911.514 364.531L957.682 337.874C960.039 338.935 963.438 338.855 965.605 337.605C967.952 336.251 967.952 334.055 965.605 332.699C963.26 331.346 959.456 331.346 957.109 332.699C955.045 333.89 954.8 335.733 956.367 337.079L911.514 362.975V326.925L946.95 306.465V238.651C948.255 238.567 949.525 238.25 950.526 237.672C952.87 236.318 952.87 234.122 950.526 232.766C948.178 231.412 944.377 231.412 942.03 232.766C939.685 234.12 939.685 236.316 942.03 237.672C943.03 238.25 944.3 238.564 945.606 238.651V305.69L911.514 325.372L911.516 205.795H910.17L910.165 409.931L978.154 449.188L953.773 463.264L864.908 411.957L864.911 289.766L822.195 265.104L822.198 219.141L784.479 197.364C786.179 196.008 785.989 194.107 783.875 192.885C781.53 191.532 777.726 191.532 775.379 192.885C773.034 194.239 773.032 196.435 775.379 197.791C777.496 199.012 780.786 199.12 783.133 198.139L820.851 219.914V265.876L863.567 290.539L863.564 412.732L952.426 464.039L934.357 474.472L814.424 405.227L814.427 300.974L814.091 300.779L707.932 239.488C709.633 238.132 709.444 236.232 707.329 235.01C704.982 233.656 701.18 233.656 698.833 235.01C696.488 236.364 696.486 238.56 698.833 239.916C700.95 241.137 704.24 241.245 706.588 240.266L813.083 301.749L813.08 406.005L813.416 406.199L933.01 475.25L903.726 492.158L704.185 376.953V325.075L703.847 324.88L536.795 228.432C538.494 227.076 538.307 225.175 536.19 223.956C533.845 222.602 530.042 222.602 527.694 223.956C525.35 225.309 525.35 227.505 527.694 228.859C529.809 230.08 533.102 230.191 535.449 229.209L702.836 325.85V377.728L703.175 377.923L815.07 442.528L726.311 442.53L623.557 383.207C625.257 381.851 625.069 379.951 622.953 378.729C620.608 377.375 616.804 377.375 614.457 378.729C612.112 380.083 612.112 382.279 614.457 383.632C616.573 384.854 619.864 384.962 622.211 383.98L725.946 443.874L817.395 443.872L902.37 492.933L868.331 512.586L795.289 470.416H678.006L544.612 393.4L470.61 393.402L440.44 375.983C442.139 374.627 441.95 372.729 439.835 371.507C437.49 370.154 433.686 370.154 431.339 371.507C428.994 372.861 428.994 375.057 431.339 376.413C433.454 377.634 436.746 377.742 439.094 376.761L470.248 394.749L544.249 394.746L645.047 452.942H557.999L516.071 428.735C517.77 427.379 517.583 425.478 515.466 424.257C513.122 422.903 509.318 422.903 506.97 424.257C504.626 425.61 504.626 427.806 506.97 429.162C509.085 430.384 512.375 430.492 514.725 429.513L557.639 454.288H647.392L677.658 471.762H794.941L815.379 483.563H765.52L765.364 483.652L740.353 498.093L636.15 498.095L606.755 481.125H547.811C547.588 480.474 547.041 479.85 546.167 479.346C543.822 477.993 540.018 477.993 537.671 479.346C535.326 480.7 535.326 482.896 537.671 484.252C540.016 485.606 543.82 485.606 546.167 484.252C547.043 483.748 547.59 483.124 547.811 482.471H606.395L635.79 499.442L738.025 499.439L709.868 515.697C707.519 514.715 704.228 514.826 702.112 516.045C699.764 517.398 699.764 519.594 702.112 520.948C704.456 522.301 708.26 522.301 710.605 520.948C712.72 519.726 712.909 517.828 711.212 516.472L765.88 484.907H817.707L866.994 513.364L848.783 523.878L849.793 524.461L860.502 530.646L826.434 530.649L781.897 504.935C783.596 503.579 783.407 501.678 781.292 500.459C778.948 499.105 775.143 499.105 772.799 500.459C770.454 501.813 770.452 504.009 772.799 505.362C774.913 506.584 778.203 506.692 780.553 505.713L826.074 531.995L862.832 531.993L887.761 546.385L872.43 555.237H845.24L845.084 555.325L821.336 569.037H803.497L763.211 545.778C765.018 544.417 764.869 542.471 762.712 541.225C760.367 539.869 756.563 539.869 754.218 541.225C751.873 542.579 751.873 544.775 754.218 546.129C756.292 547.326 759.503 547.461 761.84 546.539L803.137 570.381H821.696L821.852 570.292L845.603 556.581H870.099L821.096 584.872H794.639L739.482 553.029H573.155L469.989 493.466C471.774 492.107 471.618 490.168 469.47 488.927C467.126 487.574 463.322 487.574 460.974 488.927C458.63 490.281 458.63 492.477 460.974 493.83C463.058 495.033 466.283 495.162 468.623 494.231L572.795 554.373H739.122L794.279 586.216H821.459L821.615 586.127L889.107 547.161L906.812 557.382L830.55 601.415H776.761L732.383 575.793L618.489 575.795C618.268 575.142 617.721 574.521 616.845 574.014C614.5 572.661 610.696 572.661 608.351 574.014C606.006 575.368 606.006 577.564 608.351 578.92C610.696 580.273 614.5 580.273 616.847 578.92C617.721 578.413 618.268 577.792 618.491 577.141L732.023 577.139L774.068 601.415H613.578L613.425 601.504L460.48 689.807C458.133 688.825 454.84 688.936 452.726 690.157C450.381 691.511 450.381 693.707 452.726 695.063C455.07 696.416 458.874 696.416 461.219 695.063C463.334 693.841 463.523 691.943 461.826 690.587L613.941 602.761H830.912L831.068 602.673L908.161 558.162L928.278 569.776L821.931 631.177H634.674L634.521 631.266L470.543 725.939L279.484 725.941L168.062 661.609C169.759 660.253 169.569 658.355 167.455 657.133C165.11 655.78 161.306 655.78 158.959 657.133C156.614 658.487 156.614 660.683 158.959 662.039C161.073 663.26 164.364 663.368 166.713 662.389L279.122 727.288L470.903 727.285L471.059 727.196L635.034 632.524H771.438L571.149 748.16L571.146 778.602L491.25 824.73C488.903 823.748 485.613 823.859 483.498 825.08C481.154 826.434 481.154 828.63 483.498 829.986C485.843 831.339 489.647 831.339 491.994 829.986C494.111 828.764 494.298 826.863 492.599 825.507L572.493 779.382L572.495 748.94L774.133 632.526H820.95L720.124 690.74V703.571L671.876 731.428C669.529 730.446 666.236 730.554 664.122 731.778C661.775 733.132 661.775 735.328 664.122 736.681C666.467 738.037 670.271 738.035 672.616 736.681C674.73 735.46 674.92 733.561 673.22 732.205L699.488 717.039V752.2L547.722 839.821C545.373 838.839 542.082 838.95 539.968 840.169C537.623 841.523 537.623 843.719 539.968 845.075C542.313 846.428 546.117 846.428 548.464 845.075C550.578 843.853 550.768 841.952 549.069 840.599L700.832 752.977V716.264L721.465 704.353V691.523L823.122 632.831L822.786 632.248L929.624 570.563L949.045 581.776L839.293 645.148L839.291 749.404L637.432 865.947H640.125L807.253 769.458L807.251 863.749L803.442 865.947H806.135L808.595 864.526L808.597 768.68L840.637 750.184L840.639 645.928L950.394 582.561L967.494 592.434L882.862 641.296V698.452L883.199 698.646L979.424 754.199V773.579L925.006 804.997C922.659 804.015 919.369 804.126 917.254 805.347C914.91 806.701 914.907 808.897 917.254 810.251C919.599 811.604 923.403 811.604 925.75 810.251C927.865 809.029 928.054 807.131 926.355 805.775L980.773 774.359V753.421L980.437 753.227L884.211 697.674V642.076L948.157 605.159L948.154 628.967L918.839 645.892C916.491 644.91 913.201 645.02 911.084 646.242C908.739 647.596 908.739 649.792 911.084 651.148C913.429 652.501 917.233 652.501 919.58 651.148C921.694 649.926 921.884 648.028 920.187 646.672L949.501 629.747V604.384L968.842 593.217L991.712 606.419L991.71 647.886L948.572 672.791V701.459L948.908 701.653L1039.72 754.081C1038.02 755.437 1038.21 757.336 1040.32 758.557C1042.67 759.911 1046.47 759.911 1048.82 758.557C1051.16 757.203 1051.16 755.008 1048.82 753.654C1046.7 752.432 1043.41 752.324 1041.06 753.304L949.914 700.681V673.568L991.705 649.441V678.023L1047.6 710.296C1045.9 711.652 1046.09 713.552 1048.21 714.772C1050.55 716.128 1054.35 716.125 1056.7 714.772C1059.04 713.418 1059.04 711.222 1056.7 709.868C1054.58 708.647 1051.29 708.536 1048.94 709.518L993.049 677.245L993.051 607.199L1009.11 616.473L1009.45 616.28L1035.58 601.194L1059.55 615.035V648.669L1123.26 685.451V717.155C1121.96 717.239 1120.69 717.556 1119.69 718.134C1117.34 719.488 1117.34 721.686 1119.69 723.039C1122.04 724.393 1125.84 724.393 1128.19 723.039C1130.53 721.686 1130.53 719.49 1128.19 718.134C1127.18 717.556 1125.91 717.241 1124.61 717.155V684.673L1060.9 647.891L1060.9 615.813L1164.04 675.361L1164.04 738.484L1108.1 770.78H1056.77L1056.61 770.869L968.526 821.727C966.178 820.746 962.886 820.856 960.771 822.078C958.426 823.434 958.426 825.627 960.771 826.983C963.116 828.337 966.92 828.337 969.267 826.983C971.382 825.762 971.571 823.863 969.874 822.507L1057.13 772.129H1105.77L943.95 865.556C941.602 864.575 938.31 864.685 936.195 865.907C936.164 865.926 936.142 865.947 936.114 865.964H945.939L1165.39 739.266L1165.39 674.588L1165.05 674.394L1036.93 600.424L1062.71 585.537L1281.46 711.832V787.189L1356.18 830.334C1354.49 831.69 1354.68 833.588 1356.79 834.81C1359.14 836.163 1362.94 836.163 1365.29 834.81C1367.63 833.456 1367.63 831.26 1365.29 829.904C1363.17 828.683 1359.88 828.575 1357.53 829.556L1282.81 786.411V711.054L1282.47 710.86L1064.06 584.761L1088.61 570.587L1304.93 695.483H1433.94L1440 698.977V697.424L1434.3 694.136H1305.3L1122.68 588.705H1159.41L1221.74 624.688L1269.74 624.685L1269.9 624.597L1336.48 586.156C1338.83 587.137 1342.12 587.027 1344.24 585.805C1346.58 584.452 1346.58 582.256 1344.24 580.9C1341.89 579.546 1338.09 579.546 1335.74 580.9C1333.63 582.121 1333.44 584.02 1335.13 585.376L1269.38 623.339L1222.09 623.341L1159.77 587.358H1120.35L1089.95 569.807L1155.48 531.973L1174.11 542.73L1174.11 570.969L1221.45 598.297C1219.75 599.653 1219.94 601.552 1222.05 602.773C1224.4 604.129 1228.2 604.129 1230.55 602.773C1232.89 601.42 1232.89 599.224 1230.55 597.87C1228.44 596.649 1225.14 596.541 1222.8 597.52L1175.46 570.191V543.508L1225.94 572.651H1249.84L1250 572.562L1278.5 556.11C1280.85 557.089 1284.14 556.981 1286.25 555.76C1288.6 554.406 1288.6 552.21 1286.25 550.854C1283.91 549.501 1280.1 549.501 1277.76 550.854C1275.64 552.076 1275.45 553.977 1277.15 555.333L1249.48 571.307H1226.3L1156.83 531.196L1169.45 523.909L1168.44 523.326L1129.17 500.656L1148.03 489.767H1176.55L1196.95 501.551C1195.33 502.905 1195.55 504.77 1197.63 505.974C1199.98 507.328 1203.78 507.328 1206.13 505.974C1208.47 504.621 1208.47 502.425 1206.13 501.071C1203.99 499.833 1200.64 499.741 1198.28 500.764L1176.91 488.421H1150.36L1198.45 460.655L1311.61 525.99H1393.04L1393.2 525.901L1439.04 499.432C1439.34 499.554 1439.68 499.607 1439.99 499.696V493.506C1439.39 493.672 1438.81 493.888 1438.3 494.178C1436.19 495.4 1436 497.298 1437.7 498.654L1392.68 524.646H1311.98L1224.71 474.258L1262.06 474.256L1298.58 495.34C1296.88 496.696 1297.07 498.594 1299.18 499.816C1301.53 501.17 1305.33 501.17 1307.68 499.816C1310.02 498.462 1310.02 496.266 1307.68 494.913C1305.56 493.691 1302.27 493.581 1299.93 494.562L1262.43 472.912L1222.38 472.914L1199.81 459.882L1257.26 426.712L1440 426.688V425.342L1259.59 425.344L1282.38 412.187L1418.29 412.185L1418.45 412.096L1440 399.654V398.102L1417.93 410.841L1282.02 410.843L1281.86 410.932L1127.83 499.862L1110.73 489.99L1272.67 396.496L1391.1 396.494L1391.26 396.405L1440 368.26V366.705L1390.74 395.145L1272.31 395.147L1272.15 395.236L1109.38 489.21L1089.96 477.998L1405.79 295.653L1405.79 229.514L1440 209.764V208.212ZM1166.76 523.895L1009.11 614.913L851.475 523.897L1009.12 432.882L1166.76 523.895Z" fill="#42E8E0"/>
<path d="M730.554 671.317C730.352 671.317 730.153 671.212 730.045 671.025C729.882 670.744 729.978 670.381 730.259 670.221L735.959 666.921C736.237 666.757 736.599 666.851 736.763 667.134C736.926 667.415 736.83 667.777 736.549 667.938L730.849 671.238C730.756 671.291 730.655 671.317 730.554 671.317Z" fill="#42E8E0"/>
<path d="M720.308 677.212C720.107 677.212 719.907 677.106 719.799 676.919C719.636 676.638 719.732 676.278 720.013 676.115L725.713 672.815C725.994 672.652 726.354 672.748 726.517 673.028C726.68 673.309 726.584 673.672 726.303 673.832L720.603 677.132C720.507 677.185 720.409 677.212 720.308 677.212Z" fill="#42E8E0"/>
</g>
<defs>
<linearGradient id="paint0_linear_1_3886" x1="2525.62" y1="130.574" x2="416.779" y2="130.574" gradientUnits="userSpaceOnUse">
<stop stop-color="#ECAC1A"/>
<stop offset="1" stop-color="#F5C635"/>
</linearGradient>
</defs>
</svg>
