<svg width="16" height="16" viewBox="0 0 16 16" fill="none" xmlns="http://www.w3.org/2000/svg">
<path d="M8.00008 5.33333C8.73341 5.33333 9.33341 4.73333 9.33341 4C9.33341 3.26667 8.73341 2.66667 8.00008 2.66667C7.26675 2.66667 6.66675 3.26667 6.66675 4C6.66675 4.73333 7.26675 5.33333 8.00008 5.33333ZM8.00008 6.66667C7.26675 6.66667 6.66675 7.26667 6.66675 8C6.66675 8.73333 7.26675 9.33333 8.00008 9.33333C8.73341 9.33333 9.33341 8.73333 9.33341 8C9.33341 7.26667 8.73341 6.66667 8.00008 6.66667ZM8.00008 10.6667C7.26675 10.6667 6.66675 11.2667 6.66675 12C6.66675 12.7333 7.26675 13.3333 8.00008 13.3333C8.73341 13.3333 9.33341 12.7333 9.33341 12C9.33341 11.2667 8.73341 10.6667 8.00008 10.6667Z" fill="#C0C0C0"/>
</svg>
