<svg width="16" height="16" viewBox="0 0 16 16" fill="none" xmlns="http://www.w3.org/2000/svg">
<path d="M15.2534 13.915C14.7713 13.4851 14.3492 12.9924 13.9984 12.45C13.6155 11.7012 13.3861 10.8836 13.3234 10.045V7.57495C13.3267 6.25776 12.8489 4.98469 11.9798 3.99494C11.1107 3.00519 9.91002 2.36688 8.60344 2.19995V1.55495C8.60344 1.37792 8.53311 1.20814 8.40793 1.08296C8.28275 0.957777 8.11297 0.887451 7.93594 0.887451C7.75891 0.887451 7.58912 0.957777 7.46394 1.08296C7.33876 1.20814 7.26844 1.37792 7.26844 1.55495V2.20995C5.97357 2.38892 4.78742 3.03108 3.9297 4.0175C3.07198 5.00393 2.6008 6.26777 2.60344 7.57495V10.045C2.54081 10.8836 2.31133 11.7012 1.92844 12.45C1.58388 12.9911 1.16853 13.4838 0.693438 13.915C0.640103 13.9618 0.597358 14.0195 0.568046 14.0841C0.538734 14.1488 0.523527 14.219 0.523438 14.29V14.97C0.523438 15.1026 0.576116 15.2297 0.669884 15.3235C0.763652 15.4173 0.890829 15.47 1.02344 15.47H14.9234C15.056 15.47 15.1832 15.4173 15.277 15.3235C15.3708 15.2297 15.4234 15.1026 15.4234 14.97V14.29C15.4233 14.219 15.4081 14.1488 15.3788 14.0841C15.3495 14.0195 15.3068 13.9618 15.2534 13.915ZM1.56344 14.47C2.02864 14.0206 2.43824 13.517 2.78344 12.97C3.26574 12.0657 3.54715 11.068 3.60844 10.045V7.57495C3.58861 6.98897 3.6869 6.40499 3.89746 5.85779C4.10802 5.31058 4.42654 4.81134 4.83406 4.3898C5.24158 3.96826 5.72976 3.63304 6.26953 3.40409C6.8093 3.17514 7.38962 3.05716 7.97594 3.05716C8.56225 3.05716 9.14258 3.17514 9.68235 3.40409C10.2221 3.63304 10.7103 3.96826 11.1178 4.3898C11.5253 4.81134 11.8439 5.31058 12.0544 5.85779C12.265 6.40499 12.3633 6.98897 12.3434 7.57495V10.045C12.4047 11.068 12.6861 12.0657 13.1684 12.97C13.5136 13.517 13.9232 14.0206 14.3884 14.47H1.56344Z" fill="#4EE39D"/>
</svg>
