<svg width="20" height="20" viewBox="0 0 20 20" fill="none" xmlns="http://www.w3.org/2000/svg">
<path d="M15.1117 9.16666C15.5958 13.6458 17.5 15 17.5 15H2.5C2.5 15 5 13.2225 5 6.99999C5 5.58582 5.52667 4.22916 6.46417 3.22916C7.40167 2.22916 8.675 1.66666 10 1.66666C10.2817 1.66666 10.5594 1.69166 10.8333 1.74166M11.4417 17.5C11.2952 17.7526 11.0849 17.9622 10.8319 18.1079C10.5788 18.2537 10.292 18.3304 10 18.3304C9.70802 18.3304 9.42116 18.2537 9.16814 18.1079C8.91513 17.9622 8.70484 17.7526 8.55833 17.5M15.8333 6.66666C16.4964 6.66666 17.1323 6.40326 17.6011 5.93442C18.0699 5.46558 18.3333 4.8297 18.3333 4.16666C18.3333 3.50362 18.0699 2.86773 17.6011 2.39889C17.1323 1.93005 16.4964 1.66666 15.8333 1.66666C15.1703 1.66666 14.5344 1.93005 14.0656 2.39889C13.5967 2.86773 13.3333 3.50362 13.3333 4.16666C13.3333 4.8297 13.5967 5.46558 14.0656 5.93442C14.5344 6.40326 15.1703 6.66666 15.8333 6.66666Z" stroke="#ECAC1A" stroke-width="1.25" stroke-linecap="round" stroke-linejoin="round"/>
</svg>
