<svg width="28" height="28" viewBox="0 0 28 28" fill="none" xmlns="http://www.w3.org/2000/svg">
<g clip-path="url(#clip0_46_588)">
<path d="M26.25 11.8125C26.2532 9.76471 25.5722 7.7745 24.315 6.15797C23.0578 4.54144 21.2966 3.39127 19.311 2.8901C17.3254 2.38893 15.2293 2.5655 13.3556 3.39176C11.4818 4.21803 9.93784 5.64662 8.9688 7.45067C7.54186 7.91559 6.25053 8.72298 5.20772 9.80227C4.16491 10.8816 3.40236 12.1999 2.98676 13.6419C2.57115 15.084 2.51514 16.6059 2.82362 18.0747C3.1321 19.5434 3.79567 20.9142 4.75633 22.0672C5.71699 23.2202 6.94547 24.1204 8.33438 24.6889C9.72329 25.2575 11.2303 25.4771 12.7237 25.3287C14.2171 25.1802 15.6515 24.6682 16.9013 23.8373C18.1511 23.0065 19.1783 21.8821 19.8932 20.5625C21.7447 19.9683 23.3589 18.7999 24.5019 17.2266C25.6448 15.6534 26.2571 13.7571 26.25 11.8125ZM11.8125 24.5C10.1685 24.5 8.56135 24.0125 7.19437 23.0991C5.82739 22.1858 4.76195 20.8875 4.1328 19.3686C3.50365 17.8497 3.33903 16.1783 3.65977 14.5659C3.98051 12.9534 4.7722 11.4722 5.93472 10.3097C7.09725 9.1472 8.57839 8.35551 10.1909 8.03477C11.8033 7.71403 13.4747 7.87865 14.9936 8.5078C16.5125 9.13695 17.8108 10.2024 18.7241 11.5694C19.6375 12.9364 20.125 14.5435 20.125 16.1875C20.125 18.3922 19.2493 20.5065 17.6904 22.0654C16.1315 23.6243 14.0172 24.5 11.8125 24.5ZM20.4094 19.4229C20.9324 18.0328 21.1106 16.5367 20.9288 15.0626C20.7469 13.5886 20.2105 12.1807 19.3653 10.9594C18.5202 9.73811 17.3915 8.73992 16.0761 8.05036C14.7607 7.36079 13.2977 7.00039 11.8125 7.00005C11.2675 7.00088 10.7236 7.04993 10.1872 7.14661C10.9102 6.08042 11.8711 5.19686 12.9941 4.56566C14.1171 3.93445 15.3714 3.57288 16.658 3.50948C17.9446 3.44608 19.2284 3.68259 20.408 4.20033C21.5876 4.71808 22.6307 5.5029 23.455 6.49284C24.2793 7.48279 24.8623 8.65077 25.1578 9.9046C25.4534 11.1584 25.4535 12.4638 25.1582 13.7177C24.8628 14.9716 24.2801 16.1397 23.456 17.1298C22.6319 18.1199 21.5889 18.9049 20.4094 19.4229Z" fill="#557EFF"/>
<path d="M16.4062 13.2781L12.0312 10.7515C11.9647 10.7131 11.8893 10.6929 11.8125 10.6929C11.7357 10.6929 11.6603 10.7131 11.5938 10.7515L7.21875 13.2781C7.15231 13.3165 7.09712 13.3716 7.05873 13.4381C7.02033 13.5045 7.00008 13.5798 7 13.6565V18.7075C7.00008 18.7842 7.02033 18.8596 7.05873 18.926C7.09712 18.9924 7.15231 19.0476 7.21875 19.0859L11.5938 21.6125C11.6603 21.6509 11.7357 21.6711 11.8125 21.6711C11.8893 21.6711 11.9647 21.6509 12.0312 21.6125L16.4062 19.0859C16.4727 19.0476 16.5279 18.9924 16.5663 18.926C16.6047 18.8596 16.6249 18.7842 16.625 18.7075V13.6565C16.6249 13.5798 16.6047 13.5045 16.5663 13.4381C16.5279 13.3716 16.4727 13.3165 16.4062 13.2781ZM11.8125 11.6353L15.3978 13.7047L11.8125 15.7762L8.22719 13.7047L11.8125 11.6353ZM7.875 14.5119L11.375 16.5331V20.4706L7.875 18.4559V14.5119ZM12.25 20.475V16.5375L15.75 14.5162V18.4537L12.25 20.475Z" fill="#557EFF"/>
</g>
<defs>
<clipPath id="clip0_46_588">
<rect width="28" height="28" fill="white"/>
</clipPath>
</defs>
</svg>
