<svg width="30" height="30" viewBox="0 0 30 30" fill="none" xmlns="http://www.w3.org/2000/svg">
<path d="M20.5243 9.47573C20.7001 9.65154 20.7988 9.89 20.7988 10.1386C20.7988 10.3873 20.7001 10.6257 20.5243 10.8016L16.3258 15L20.5243 19.1984C20.7001 19.3743 20.7988 19.6127 20.7988 19.8614C20.7988 20.11 20.7001 20.3485 20.5243 20.5243C20.3484 20.7001 20.11 20.7989 19.8613 20.7989C19.6127 20.7989 19.3743 20.7001 19.1984 20.5243L15 16.3258L10.8015 20.5243C10.6257 20.7001 10.3873 20.7989 10.1386 20.7989C9.88999 20.7989 9.65153 20.7001 9.47572 20.5243C9.2999 20.3485 9.20113 20.11 9.20113 19.8614C9.20113 19.6127 9.2999 19.3743 9.47572 19.1984L13.6742 15L9.47572 10.8016C9.2999 10.6257 9.20113 10.3873 9.20113 10.1386C9.20113 9.89 9.2999 9.65154 9.47572 9.47573C9.65153 9.29991 9.88999 9.20114 10.1386 9.20114C10.3873 9.20114 10.6257 9.29991 10.8015 9.47573L15 13.6742L19.1984 9.47573C19.3743 9.29991 19.6127 9.20114 19.8613 9.20114C20.11 9.20114 20.3484 9.29991 20.5243 9.47573Z" fill="#ECAC1A"/>
</svg>
