<svg width="20" height="20" viewBox="0 0 20 20" fill="none" xmlns="http://www.w3.org/2000/svg">
<path d="M10.0001 11.6667C9.77907 11.6667 9.56711 11.5789 9.41083 11.4226C9.25455 11.2663 9.16675 11.0544 9.16675 10.8333V4.16668C9.16675 3.94566 9.25455 3.7337 9.41083 3.57742C9.56711 3.42114 9.77907 3.33334 10.0001 3.33334C10.2211 3.33334 10.4331 3.42114 10.5893 3.57742C10.7456 3.7337 10.8334 3.94566 10.8334 4.16668V10.8333C10.8334 11.0544 10.7456 11.2663 10.5893 11.4226C10.4331 11.5789 10.2211 11.6667 10.0001 11.6667Z" fill="white"/>
<path d="M10.0001 17.5C8.58206 17.4984 7.20149 17.0447 6.05895 16.2049C4.91641 15.365 4.07143 14.1827 3.64678 12.8298C3.22213 11.4769 3.23993 10.0238 3.6976 8.68165C4.15527 7.33952 5.02896 6.17829 6.19174 5.36667C6.28111 5.29739 6.38365 5.24702 6.49311 5.21864C6.60257 5.19025 6.71666 5.18444 6.82844 5.20156C6.94022 5.21868 7.04734 5.25837 7.14329 5.31821C7.23924 5.37805 7.32201 5.45679 7.38655 5.54965C7.45109 5.6425 7.49606 5.74752 7.51872 5.8583C7.54138 5.96909 7.54126 6.08333 7.51835 6.19407C7.49545 6.30481 7.45025 6.40972 7.3855 6.50243C7.32076 6.59514 7.23782 6.67371 7.14174 6.73334C6.26845 7.34179 5.61212 8.21304 5.26823 9.2203C4.92435 10.2276 4.91086 11.3183 5.22974 12.3337C5.54861 13.3492 6.1832 14.2364 7.04117 14.8663C7.89914 15.4961 8.93572 15.8358 10.0001 15.8358C11.0644 15.8358 12.101 15.4961 12.959 14.8663C13.8169 14.2364 14.4515 13.3492 14.7704 12.3337C15.0893 11.3183 15.0758 10.2276 14.7319 9.2203C14.388 8.21304 13.7317 7.34179 12.8584 6.73334C12.6897 6.60252 12.5775 6.41192 12.5452 6.20087C12.5129 5.98981 12.5628 5.7744 12.6847 5.59908C12.8066 5.42376 12.9911 5.3019 13.2002 5.25866C13.4093 5.21541 13.627 5.25408 13.8084 5.36667C14.9712 6.17829 15.8449 7.33952 16.3025 8.68165C16.7602 10.0238 16.778 11.4769 16.3534 12.8298C15.9287 14.1827 15.0837 15.365 13.9412 16.2049C12.7987 17.0447 11.4181 17.4984 10.0001 17.5Z" fill="white"/>
</svg>
