<svg width="22" height="22" viewBox="0 0 22 22" fill="none" xmlns="http://www.w3.org/2000/svg">
<g clip-path="url(#clip0_363_11452)">
<path d="M6.05867 18.1445C4.92361 18.7963 3.64417 19.03 2.88654 19.1139C2.97042 18.3563 3.20417 17.0768 3.85523 15.9411C4.02573 15.6448 3.9233 15.2667 3.62698 15.0962C3.32792 14.925 2.95186 15.0288 2.78205 15.3251C1.61604 17.3587 1.60229 19.6811 1.60229 19.7794C1.60229 20.1211 1.87936 20.3982 2.22105 20.3982C2.31936 20.3982 4.64173 20.3844 6.67536 19.2184C6.97167 19.0479 7.07411 18.6705 6.90361 18.3735C6.73448 18.0772 6.35705 17.974 6.05867 18.1445Z" fill="#C1CCF7"/>
<path d="M21.2504 2.25158C21.258 1.84526 21.1047 1.46439 20.8187 1.17908C20.5334 0.893765 20.1209 0.752827 19.7482 0.74939C18.035 0.781702 13.4136 1.27326 9.0411 5.1982C8.26148 4.89501 7.08654 4.4447 6.19485 4.55951C4.8831 4.72795 2.94504 6.5127 1.04685 8.41708C0.795228 8.66939 0.694853 9.02689 0.779415 9.37339C0.86329 9.72126 1.11767 9.9942 1.45867 10.1035L4.47679 11.0729C4.24923 11.4881 4.0251 11.913 3.80854 12.3613C3.53629 12.925 3.65179 13.6022 4.09592 14.045L7.95485 17.9039C8.2381 18.1878 8.6176 18.3377 9.00054 18.3377C9.2171 18.3377 9.43573 18.2903 9.63923 18.192C10.0875 17.9754 10.5124 17.7513 10.9262 17.5244L11.8963 20.5418C12.0056 20.8828 12.2785 21.1372 12.6271 21.2218C12.7075 21.241 12.7887 21.2506 12.8698 21.2506C13.1345 21.2506 13.3895 21.1468 13.5834 20.9536C15.4878 19.0555 17.2725 17.1181 17.4403 15.807C17.5565 14.9071 17.1048 13.739 16.8016 12.9594C20.7259 8.58689 21.2181 3.96551 21.2504 2.25158ZM2.17848 9.03583C3.18567 8.03276 5.37329 5.9132 6.35229 5.78739C6.78885 5.7317 7.47429 5.93864 8.05317 6.14833C7.03085 7.20501 6.0381 8.47139 5.11273 9.9777L2.17848 9.03583ZM9.10092 17.0775C9.0136 17.1201 8.90154 17.1009 8.83004 17.0294L4.97042 13.1698C4.8996 13.099 4.87966 12.9876 4.92298 12.8989C9.72929 2.9432 17.5035 2.0302 19.7723 1.98758H19.7778C19.8596 1.98758 19.9132 2.02401 19.9449 2.05564C19.971 2.08176 20.0157 2.13951 20.0143 2.22889C19.9703 4.49764 19.0566 12.2719 9.10092 17.0775ZM16.2131 15.6489C16.0873 16.6272 13.9677 18.8155 12.9647 19.822L12.0214 16.8885C13.5291 15.9631 14.7955 14.9696 15.8522 13.9473C16.0625 14.5255 16.2695 15.2096 16.2131 15.6489Z" fill="#C1CCF7"/>
<path d="M16.5885 9.08463C17.6005 8.07195 17.6005 6.4247 16.5885 5.41201C15.6068 4.43163 13.8963 4.43163 12.9159 5.41201C12.4257 5.9022 12.1555 6.55463 12.1555 7.24832C12.1555 7.94201 12.4264 8.59445 12.9159 9.08463C13.4061 9.57482 14.0585 9.84501 14.7522 9.84501C15.4459 9.84501 16.0976 9.57482 16.5885 9.08463ZM15.7126 8.20945C15.1991 8.7237 14.3033 8.7237 13.7911 8.20945C13.534 7.95301 13.3923 7.61132 13.3923 7.24832C13.3923 6.88532 13.534 6.54432 13.7911 6.2872C14.0475 6.03076 14.3885 5.88913 14.7515 5.88913C15.1138 5.88913 15.4555 6.03076 15.712 6.2872C16.2427 6.81726 16.2427 7.67938 15.7126 8.20945Z" fill="#C1CCF7"/>
</g>
<defs>
<clipPath id="clip0_363_11452">
<rect width="22" height="22" fill="white"/>
</clipPath>
</defs>
</svg>
