<svg width="22" height="22" viewBox="0 0 22 22" fill="none" xmlns="http://www.w3.org/2000/svg">
<g clip-path="url(#clip0_363_11408)">
<path d="M19.0964 5.3528L11.3619 0.110445C11.3619 0.110278 11.3617 0.110278 11.3617 0.110278C11.1474 -0.0354134 10.857 -0.0380989 10.6388 0.110278C10.6388 0.110278 10.6386 0.110278 10.6386 0.110445L2.90408 5.3528C2.72784 5.47214 2.62109 5.67322 2.62109 5.88622V16.1991C2.62109 16.4156 2.73103 16.6172 2.90811 16.7355L10.6391 21.8894C10.8506 22.0311 11.1324 22.0426 11.3614 21.8894L19.0924 16.7353C19.2661 16.6195 19.3794 16.4199 19.3794 16.1991V5.88622C19.3794 5.67759 19.276 5.47432 19.0964 5.3528ZM11.6449 1.85941L17.4453 5.79088L14.8826 7.02254L11.6447 5.29557V1.85941H11.6449ZM10.3556 1.85941V5.29557L7.11788 7.02254L4.55519 5.79088L10.3556 1.85941ZM3.91016 6.91126L6.48845 8.15031V13.935L3.91016 15.1742V6.91126ZM10.3556 20.1512L4.56409 16.2902L7.11771 15.0627L10.3556 16.7897V20.1512ZM11.0002 15.6725L7.77751 13.9536V8.13167L11.0002 6.41292L14.223 8.13167V13.9536L11.0002 15.6725ZM11.6449 20.1512V16.7897L14.8826 15.0627L17.4363 16.2902L11.6449 20.1512ZM18.0904 15.1742L15.5121 13.935V8.15031L18.0904 6.91126V15.1742Z" fill="#C1CCF7"/>
</g>
<defs>
<clipPath id="clip0_363_11408">
<rect width="22" height="22" fill="white"/>
</clipPath>
</defs>
</svg>
