<svg width="16" height="16" viewBox="0 0 16 16" fill="none" xmlns="http://www.w3.org/2000/svg">
<path d="M8.50005 13.3333C8.50005 13.4659 8.44737 13.5931 8.3536 13.6869C8.25983 13.7807 8.13266 13.8333 8.00005 13.8333C7.86744 13.8333 7.74026 13.7807 7.6465 13.6869C7.55273 13.5931 7.50005 13.4659 7.50005 13.3333V7.16667H4.00005C3.90122 7.16659 3.80464 7.13722 3.72249 7.08227C3.64035 7.02732 3.57633 6.94927 3.53852 6.85796C3.50072 6.76665 3.49082 6.66618 3.51007 6.56925C3.52933 6.47232 3.57688 6.38327 3.64672 6.31334L7.64672 2.31334C7.74047 2.21971 7.86755 2.16711 8.00005 2.16711C8.13255 2.16711 8.25963 2.21971 8.35338 2.31334L12.3534 6.31334C12.4232 6.38327 12.4708 6.47232 12.49 6.56925C12.5093 6.66618 12.4994 6.76665 12.4616 6.85796C12.4238 6.94927 12.3597 7.02732 12.2776 7.08227C12.1955 7.13722 12.0989 7.16659 12 7.16667H8.50005V13.3333Z" fill="#18FF93"/>
</svg>
