<svg width="16" height="16" viewBox="0 0 16 16" fill="none" xmlns="http://www.w3.org/2000/svg">
<path d="M8.50005 2.66666C8.50005 2.53405 8.44737 2.40687 8.3536 2.31311C8.25983 2.21934 8.13266 2.16666 8.00005 2.16666C7.86744 2.16666 7.74026 2.21934 7.6465 2.31311C7.55273 2.40687 7.50005 2.53405 7.50005 2.66666V8.83333H4.00005C3.90122 8.83341 3.80464 8.86278 3.72249 8.91773C3.64035 8.97268 3.57633 9.05073 3.53852 9.14204C3.50072 9.23335 3.49082 9.33382 3.51007 9.43075C3.52933 9.52768 3.57688 9.61673 3.64672 9.68666L7.64672 13.6867C7.74047 13.7803 7.86755 13.8329 8.00005 13.8329C8.13255 13.8329 8.25963 13.7803 8.35338 13.6867L12.3534 9.68666C12.4232 9.61673 12.4708 9.52768 12.49 9.43075C12.5093 9.33382 12.4994 9.23335 12.4616 9.14204C12.4238 9.05073 12.3597 8.97268 12.2776 8.91773C12.1955 8.86278 12.0989 8.83341 12 8.83333H8.50005V2.66666Z" fill="#FF1C45"/>
</svg>
