<svg width="20" height="20" viewBox="0 0 20 20" fill="none" xmlns="http://www.w3.org/2000/svg">
<path d="M7.1875 7.5C6.13679 7.5 5.10967 7.81157 4.23604 8.39532C3.3624 8.97906 2.68148 9.80876 2.27939 10.7795C1.8773 11.7502 1.7721 12.8184 1.97708 13.8489C2.18206 14.8794 2.68803 15.826 3.431 16.569C4.17396 17.312 5.12056 17.8179 6.15108 18.0229C7.18161 18.2279 8.24978 18.1227 9.22051 17.7206C10.1912 17.3185 11.0209 16.6376 11.6047 15.764C12.1884 14.8903 12.5 13.8632 12.5 12.8125C12.5 11.4035 11.9403 10.0523 10.944 9.056C9.94772 8.05971 8.59647 7.5 7.1875 7.5ZM7.1875 17.5C6.2604 17.5 5.35412 17.2251 4.58327 16.71C3.81241 16.1949 3.2116 15.4629 2.85682 14.6063C2.50203 13.7498 2.4092 12.8073 2.59007 11.898C2.77094 10.9887 3.21738 10.1535 3.87294 9.49794C4.5285 8.84238 5.36373 8.39594 6.27302 8.21507C7.1823 8.0342 8.1248 8.12703 8.98133 8.48181C9.83786 8.8366 10.5699 9.43741 11.085 10.2083C11.6001 10.9791 11.875 11.8854 11.875 12.8125C11.875 14.0557 11.3811 15.248 10.5021 16.1271C9.62299 17.0061 8.4307 17.5 7.1875 17.5Z" fill="#42E8E0"/>
<path d="M9.84384 11.0937L7.34384 9.65156C7.29633 9.62413 7.24244 9.6097 7.18759 9.6097C7.13273 9.6097 7.07884 9.62413 7.03134 9.65156L4.53134 11.0937C4.48388 11.1212 4.44446 11.1605 4.41704 11.208C4.38961 11.2554 4.37514 11.3093 4.37509 11.3641V14.2531C4.37375 14.3092 4.38756 14.3647 4.41505 14.4136C4.44255 14.4626 4.48272 14.5032 4.53134 14.5312L7.03134 15.975C7.07884 16.0024 7.13273 16.0169 7.18759 16.0169C7.24244 16.0169 7.29633 16.0024 7.34384 15.975L9.84384 14.5312C9.8913 14.5038 9.93072 14.4645 9.95814 14.417C9.98557 14.3696 10 14.3157 10.0001 14.2609V11.3656C10.0003 11.3106 9.98597 11.2564 9.95853 11.2087C9.93109 11.1609 9.89153 11.1213 9.84384 11.0937ZM7.18759 10.2813L9.11103 11.3922L7.18759 12.5L5.26415 11.3937L7.18759 10.2813ZM5.00009 11.9641L6.87509 13.0469V15.1562L5.00009 14.0719V11.9641ZM7.50009 15.1562V13.0469L9.37509 11.9641V14.0719L7.50009 15.1562Z" fill="#42E8E0"/>
<path d="M12.1875 2.5C9.20781 2.5 6.875 3.59375 6.875 5V6.5625C6.875 6.64538 6.90792 6.72487 6.96653 6.78347C7.02513 6.84208 7.10462 6.875 7.1875 6.875C7.27038 6.875 7.34987 6.84208 7.40847 6.78347C7.46708 6.72487 7.5 6.64538 7.5 6.5625V6.19375C8.3875 6.975 10.1344 7.5 12.1875 7.5C14.2406 7.5 15.9875 6.97813 16.875 6.19375V9.09688C16.875 9.77188 15.625 10.6219 13.2406 10.9406C13.1626 10.9517 13.0917 10.9918 13.042 11.053C12.9924 11.1141 12.9676 11.1918 12.9727 11.2704C12.9779 11.349 13.0125 11.4228 13.0697 11.4769C13.1269 11.5311 13.2025 11.5617 13.2812 11.5625H13.3219C14.9469 11.3469 16.1828 10.8906 16.875 10.2891V13.1422C16.875 13.8813 15.4594 14.7688 13.0922 14.9719C13.0093 14.9754 12.9312 15.0117 12.8751 15.0728C12.819 15.1339 12.7894 15.2148 12.793 15.2977C12.7965 15.3805 12.8328 15.4586 12.8939 15.5147C12.955 15.5709 13.0359 15.6004 13.1187 15.5969H13.1453C15.7094 15.3734 17.5 14.3656 17.5 13.1422V5C17.5 3.59375 15.1672 2.5 12.1875 2.5ZM12.1875 6.875C9.425 6.875 7.5 5.8875 7.5 5C7.5 4.1125 9.425 3.125 12.1875 3.125C14.95 3.125 16.875 4.1125 16.875 5C16.875 5.8875 14.95 6.875 12.1875 6.875Z" fill="#42E8E0"/>
</svg>
