<svg width="28" height="28" viewBox="0 0 28 28" fill="none" xmlns="http://www.w3.org/2000/svg">
<path d="M10.0625 10.5C8.59151 10.5 7.15354 10.9362 5.93045 11.7534C4.70736 12.5707 3.75408 13.7323 3.19115 15.0913C2.62822 16.4503 2.48094 17.9458 2.76791 19.3885C3.05489 20.8312 3.76324 22.1565 4.8034 23.1966C5.84355 24.2368 7.16879 24.9451 8.61152 25.2321C10.0543 25.5191 11.5497 25.3718 12.9087 24.8089C14.2677 24.2459 15.4293 23.2926 16.2466 22.0696C17.0638 20.8465 17.5 19.4085 17.5 17.9375C17.5 15.965 16.7164 14.0732 15.3216 12.6784C13.9268 11.2836 12.0351 10.5 10.0625 10.5ZM10.0625 24.5C8.76456 24.5 7.49577 24.1151 6.41657 23.394C5.33738 22.6729 4.49624 21.648 3.99954 20.4489C3.50284 19.2497 3.37288 17.9302 3.6261 16.6572C3.87932 15.3842 4.50433 14.2149 5.42212 13.2971C6.3399 12.3793 7.50922 11.7543 8.78222 11.5011C10.0552 11.2479 11.3747 11.3778 12.5739 11.8745C13.773 12.3712 14.7979 13.2124 15.519 14.2916C16.2401 15.3708 16.625 16.6396 16.625 17.9375C16.625 19.678 15.9336 21.3472 14.7029 22.5779C13.4722 23.8086 11.803 24.5 10.0625 24.5Z" fill="#4EE39D"/>
<path d="M13.7814 15.5313L10.2814 13.5122C10.2149 13.4738 10.1394 13.4536 10.0626 13.4536C9.98583 13.4536 9.91038 13.4738 9.84387 13.5122L6.34387 15.5313C6.27743 15.5696 6.22224 15.6248 6.18385 15.6912C6.14546 15.7577 6.1252 15.833 6.12512 15.9097V19.9544C6.12325 20.033 6.14258 20.1106 6.18107 20.1791C6.21956 20.2476 6.2758 20.3045 6.34387 20.3438L9.84387 22.365C9.91038 22.4034 9.98583 22.4237 10.0626 22.4237C10.1394 22.4237 10.2149 22.4034 10.2814 22.365L13.7814 20.3438C13.8478 20.3054 13.903 20.2503 13.9414 20.1838C13.9798 20.1174 14 20.0421 14.0001 19.9654V15.9119C14.0004 15.8348 13.9804 15.759 13.9419 15.6922C13.9035 15.6253 13.8481 15.5698 13.7814 15.5313ZM10.0626 14.3938L12.7554 15.9491L10.0626 17.5L7.36981 15.9513L10.0626 14.3938ZM7.00012 16.7497L9.62512 18.2657V21.2188L7.00012 19.7007V16.7497ZM10.5001 21.2188V18.2657L13.1251 16.7497V19.7007L10.5001 21.2188Z" fill="#4EE39D"/>
<path d="M17.0625 3.5C12.8909 3.5 9.625 5.03125 9.625 7V9.1875C9.625 9.30353 9.67109 9.41481 9.75314 9.49686C9.83519 9.57891 9.94647 9.625 10.0625 9.625C10.1785 9.625 10.2898 9.57891 10.3719 9.49686C10.4539 9.41481 10.5 9.30353 10.5 9.1875V8.67125C11.7425 9.765 14.1881 10.5 17.0625 10.5C19.9369 10.5 22.3825 9.76938 23.625 8.67125V12.7356C23.625 13.6806 21.875 14.8706 18.5369 15.3169C18.4277 15.3324 18.3284 15.3886 18.2588 15.4742C18.1893 15.5598 18.1547 15.6685 18.1618 15.7785C18.169 15.8886 18.2175 15.9919 18.2976 16.0677C18.3777 16.1435 18.4835 16.1863 18.5938 16.1875H18.6506C20.9256 15.8856 22.6559 15.2469 23.625 14.4047V18.3991C23.625 19.4338 21.6431 20.6763 18.3291 20.9606C18.213 20.9656 18.1037 21.0164 18.0251 21.1019C17.9466 21.1874 17.9052 21.3007 17.9102 21.4167C17.9151 21.5328 17.9659 21.6421 18.0514 21.7206C18.137 21.7992 18.2502 21.8406 18.3663 21.8356H18.4034C21.9931 21.5228 24.5 20.1119 24.5 18.3991V7C24.5 5.03125 21.2341 3.5 17.0625 3.5ZM17.0625 9.625C13.195 9.625 10.5 8.2425 10.5 7C10.5 5.7575 13.195 4.375 17.0625 4.375C20.93 4.375 23.625 5.7575 23.625 7C23.625 8.2425 20.93 9.625 17.0625 9.625Z" fill="#4EE39D"/>
</svg>
