<svg width="20" height="20" viewBox="0 0 20 20" fill="none" xmlns="http://www.w3.org/2000/svg">
<path d="M6 8.66666V4.66666C6 3.60579 6.42143 2.58837 7.17157 1.83823C7.92172 1.08808 8.93913 0.666656 10 0.666656C11.0609 0.666656 12.0783 1.08808 12.8284 1.83823C13.5786 2.58837 14 3.60579 14 4.66666V8.66666M3.33333 8.66666H16.6667C17.0203 8.66666 17.3594 8.80713 17.6095 9.05718C17.8595 9.30723 18 9.64637 18 9.99999V18C18 18.3536 17.8595 18.6927 17.6095 18.9428C17.3594 19.1928 17.0203 19.3333 16.6667 19.3333H3.33333C2.97971 19.3333 2.64057 19.1928 2.39052 18.9428C2.14048 18.6927 2 18.3536 2 18V9.99999C2 9.64637 2.14048 9.30723 2.39052 9.05718C2.64057 8.80713 2.97971 8.66666 3.33333 8.66666Z" stroke="#C0C0C0" stroke-width="1.33333"/>
</svg>
