<svg width="20" height="20" viewBox="0 0 20 20" fill="none" xmlns="http://www.w3.org/2000/svg">
<path d="M4.16675 3.33333H17.5001C17.7211 3.33333 17.9331 3.24554 18.0893 3.08926C18.2456 2.93298 18.3334 2.72102 18.3334 2.5C18.3334 2.27899 18.2456 2.06703 18.0893 1.91075C17.9331 1.75447 17.7211 1.66667 17.5001 1.66667H4.16675C3.50371 1.66667 2.86782 1.93006 2.39898 2.3989C1.93014 2.86774 1.66675 3.50363 1.66675 4.16667V15.8333C1.66675 16.4964 1.93014 17.1323 2.39898 17.6011C2.86782 18.0699 3.50371 18.3333 4.16675 18.3333H8.33342C8.99646 18.3333 9.63234 18.0699 10.1012 17.6011C10.57 17.1323 10.8334 16.4964 10.8334 15.8333V12.0117L11.9109 13.0892C12.0681 13.241 12.2786 13.325 12.4971 13.3231C12.7156 13.3212 12.9246 13.2335 13.0791 13.079C13.2336 12.9245 13.3212 12.7155 13.3231 12.497C13.325 12.2785 13.241 12.068 13.0892 11.9108L10.5892 9.41084C10.5116 9.33307 10.4193 9.27159 10.3176 9.23C10.1137 9.14574 9.88477 9.14574 9.68091 9.23C9.57922 9.27159 9.48686 9.33307 9.40925 9.41084L6.90925 11.9108C6.75745 12.068 6.67345 12.2785 6.67535 12.497C6.67725 12.7155 6.76489 12.9245 6.9194 13.079C7.07391 13.2335 7.28292 13.3212 7.50141 13.3231C7.71991 13.325 7.93041 13.241 8.08758 13.0892L9.16675 12.0117V15.8333C9.16675 16.0543 9.07895 16.2663 8.92267 16.4226C8.76639 16.5789 8.55443 16.6667 8.33342 16.6667H4.16675C3.94573 16.6667 3.73377 16.5789 3.57749 16.4226C3.42121 16.2663 3.33341 16.0543 3.33341 15.8333V6.51333C3.6003 6.61203 3.88222 6.66391 4.16675 6.66667H16.6667V16.6667H13.3334C13.1124 16.6667 12.9004 16.7545 12.7442 16.9107C12.5879 17.067 12.5001 17.279 12.5001 17.5C12.5001 17.721 12.5879 17.933 12.7442 18.0893C12.9004 18.2455 13.1124 18.3333 13.3334 18.3333H17.5001C17.7211 18.3333 17.9331 18.2455 18.0893 18.0893C18.2456 17.933 18.3334 17.721 18.3334 17.5V5.83333C18.3334 5.61232 18.2456 5.40036 18.0893 5.24408C17.9331 5.0878 17.7211 5 17.5001 5H4.16675C3.94573 5 3.73377 4.9122 3.57749 4.75592C3.42121 4.59964 3.33341 4.38768 3.33341 4.16667C3.33341 3.94565 3.42121 3.73369 3.57749 3.57741C3.73377 3.42113 3.94573 3.33333 4.16675 3.33333Z" fill="#4EE39D"/>
</svg>
