<svg width="28" height="28" viewBox="0 0 28 28" fill="none" xmlns="http://www.w3.org/2000/svg">
<path d="M5.68079 8.07666C5.56566 8.07677 5.45169 8.0996 5.34541 8.14384C5.23912 8.18808 5.14261 8.25285 5.06141 8.33445C4.9802 8.41606 4.9159 8.5129 4.87218 8.6194C4.82847 8.7259 4.80619 8.83998 4.80665 8.95511C4.80687 9.18687 4.89904 9.40908 5.06293 9.57296C5.22681 9.73685 5.44902 9.82903 5.68079 9.82926H20.8727C21.8208 9.82926 22.4746 10.4688 22.4746 11.1814V12.71C22.4741 12.8251 22.4964 12.9392 22.5401 13.0457C22.5838 13.1522 22.6481 13.2491 22.7294 13.3307C22.8106 13.4123 22.9071 13.4771 23.0133 13.5213C23.1196 13.5655 23.2336 13.5884 23.3487 13.5885C23.4638 13.5884 23.5778 13.5655 23.6841 13.5213C23.7904 13.4771 23.8869 13.4123 23.9681 13.3307C24.0493 13.2491 24.1136 13.1522 24.1573 13.0457C24.201 12.9392 24.2233 12.8251 24.2229 12.71V11.1814C24.2229 9.42556 22.6664 8.07666 20.8727 8.07666H5.68079Z" fill="#C274FF"/>
<path d="M20.8988 11.8359C19.6191 11.8359 18.5605 12.8944 18.5605 14.1741V15.9267C18.5605 17.2063 19.6191 18.2649 20.8988 18.2649H23.3317C24.6113 18.2649 25.6656 17.2063 25.6656 15.9267V14.1741C25.6656 12.8944 24.6113 11.8359 23.3317 11.8359H20.8988ZM20.8988 13.5885H23.3317C23.6656 13.5885 23.9173 13.8402 23.9173 14.1741V15.9267C23.9173 16.2605 23.6656 16.5123 23.3317 16.5123H20.8988C20.5649 16.5123 20.3131 16.2605 20.3131 15.9267V14.1741C20.3131 13.8402 20.5649 13.5885 20.8988 13.5885Z" fill="#C274FF"/>
<path d="M13.3975 18.0366C13.2824 18.0362 13.1683 18.0584 13.0618 18.1022C12.9553 18.1459 12.8584 18.2102 12.7768 18.2914C12.6952 18.3726 12.6305 18.4691 12.5862 18.5754C12.542 18.6817 12.5192 18.7956 12.519 18.9108V23.5011C12.5192 23.6162 12.542 23.7302 12.5862 23.8364C12.6305 23.9427 12.6952 24.0392 12.7768 24.1204C12.8585 24.2016 12.9553 24.266 13.0618 24.3097C13.1683 24.3534 13.2824 24.3757 13.3975 24.3752C13.6293 24.375 13.8515 24.2828 14.0153 24.1189C14.1792 23.955 14.2714 23.7328 14.2716 23.5011V18.9108C14.2714 18.679 14.1792 18.4568 14.0154 18.2929C13.8515 18.129 13.6293 18.0369 13.3975 18.0366Z" fill="#C274FF"/>
<path d="M11.0849 20.306C10.8542 20.3062 10.6329 20.3975 10.4691 20.56C10.3049 20.7235 10.2123 20.9454 10.2114 21.177C10.2106 21.4087 10.3017 21.6313 10.4647 21.7959L12.7771 24.1169C12.9405 24.2811 13.1624 24.3737 13.3941 24.3746C13.6258 24.3754 13.8483 24.2843 14.013 24.1213C14.1772 23.9578 14.2698 23.7359 14.2707 23.5043C14.2715 23.2726 14.1804 23.05 14.0174 22.8854L11.705 20.5644C11.6237 20.4826 11.5271 20.4177 11.4207 20.3734C11.3143 20.329 11.2002 20.3061 11.0849 20.306Z" fill="#C274FF"/>
<path d="M15.7056 20.306C15.5903 20.3061 15.4762 20.329 15.3698 20.3733C15.2634 20.4176 15.1668 20.4826 15.0855 20.5644L12.7775 22.8853C12.6139 23.0494 12.522 23.2716 12.522 23.5033C12.522 23.735 12.6139 23.9572 12.7775 24.1212C12.8591 24.2026 12.9559 24.267 13.0625 24.3109C13.1691 24.3547 13.2832 24.377 13.3985 24.3766C13.5137 24.3762 13.6277 24.3531 13.734 24.3085C13.8402 24.2639 13.9366 24.1987 14.0176 24.1168L16.3257 21.7958C16.4887 21.6312 16.5798 21.4086 16.579 21.177C16.5782 20.9453 16.4855 20.7234 16.3213 20.56C16.1576 20.3974 15.9363 20.3062 15.7056 20.306Z" fill="#C274FF"/>
<path d="M3.2091 5.85034C2.97734 5.85057 2.75512 5.94274 2.59124 6.10662C2.42736 6.2705 2.33519 6.49272 2.33496 6.72448V18.9796C2.33496 20.7354 3.88713 22.08 5.6808 22.08H8.16542C8.39719 22.0798 8.6194 21.9876 8.78328 21.8238C8.94717 21.6599 9.03934 21.4377 9.03956 21.2059C9.03933 20.9741 8.94716 20.7519 8.78327 20.588C8.61939 20.4242 8.39719 20.332 8.16542 20.3318H5.6808C4.73273 20.3318 4.08324 19.6921 4.08324 18.9796V6.72448C4.08301 6.49272 3.99084 6.2705 3.82696 6.10662C3.66308 5.94274 3.44086 5.85057 3.2091 5.85034ZM23.3487 16.5123C23.2336 16.5124 23.1196 16.5352 23.0134 16.5794C22.9071 16.6237 22.8106 16.6885 22.7294 16.7701C22.6482 16.8517 22.5839 16.9485 22.5401 17.055C22.4964 17.1615 22.4741 17.2756 22.4746 17.3907V18.9796C22.4746 19.6922 21.8208 20.3318 20.8727 20.3318H18.668C18.5529 20.3313 18.4388 20.3536 18.3323 20.3973C18.2258 20.441 18.129 20.5053 18.0474 20.5865C17.9658 20.6677 17.901 20.7642 17.8567 20.8705C17.8125 20.9768 17.7897 21.0908 17.7896 21.2059C17.7897 21.321 17.8125 21.435 17.8567 21.5413C17.901 21.6476 17.9658 21.7441 18.0474 21.8253C18.129 21.9065 18.2258 21.9708 18.3323 22.0145C18.4388 22.0582 18.5529 22.0805 18.668 22.08H20.8727C22.6664 22.08 24.2229 20.7354 24.2229 18.9796V17.3907C24.2233 17.2756 24.2011 17.1615 24.1573 17.055C24.1136 16.9485 24.0493 16.8517 23.9681 16.7701C23.8869 16.6885 23.7904 16.6237 23.6841 16.5794C23.5778 16.5352 23.4639 16.5124 23.3487 16.5123Z" fill="#C274FF"/>
<path d="M5.6808 3.62415C3.8884 3.62415 2.33496 4.96898 2.33496 6.72454C2.33496 8.48012 3.8884 9.82926 5.6808 9.82926C5.79593 9.82971 5.91001 9.80744 6.01651 9.76372C6.12301 9.72001 6.21984 9.6557 6.30145 9.57449C6.38305 9.49328 6.44784 9.39678 6.49207 9.29049C6.53631 9.1842 6.55914 9.07023 6.55925 8.9551C6.5597 8.83961 6.53729 8.72517 6.49331 8.61838C6.44933 8.5116 6.38464 8.41458 6.30298 8.33292C6.22131 8.25126 6.1243 8.18658 6.01751 8.14259C5.91073 8.09861 5.79629 8.0762 5.6808 8.07666C4.73965 8.07666 4.08324 7.42932 4.08324 6.72454C4.08324 6.01978 4.73965 5.37242 5.6808 5.37242H18.9178C19.527 5.37242 20.0029 5.84837 20.0029 6.45756V8.9551C20.0031 9.18687 20.0953 9.40907 20.2592 9.57296C20.4231 9.73684 20.6453 9.82903 20.877 9.82926C21.1088 9.82903 21.331 9.73684 21.4949 9.57296C21.6588 9.40907 21.751 9.18687 21.7512 8.9551V6.45756C21.7512 4.90259 20.4727 3.62415 18.9178 3.62415H5.6808Z" fill="#C274FF"/>
</svg>
