<svg width="20" height="20" viewBox="0 0 20 20" fill="none" xmlns="http://www.w3.org/2000/svg">
<path d="M4.0575 5.76904C3.97526 5.76912 3.89386 5.78543 3.81794 5.81703C3.74202 5.84863 3.67308 5.89489 3.61508 5.95318C3.55708 6.01147 3.51115 6.08064 3.47992 6.15671C3.44869 6.23279 3.43279 6.31427 3.43311 6.3965C3.43327 6.56205 3.49911 6.72077 3.61617 6.83783C3.73323 6.95489 3.89195 7.02074 4.0575 7.0209H14.9089C15.5861 7.0209 16.0531 7.47774 16.0531 7.98669V9.07859C16.0527 9.16082 16.0686 9.24231 16.0999 9.31838C16.1311 9.39445 16.177 9.46361 16.235 9.5219C16.293 9.58019 16.362 9.62647 16.4379 9.65806C16.5138 9.68966 16.5952 9.70597 16.6775 9.70605C16.7597 9.70597 16.8411 9.68966 16.917 9.65806C16.9929 9.62647 17.0619 9.58019 17.1199 9.5219C17.1779 9.46361 17.2238 9.39445 17.255 9.31838C17.2863 9.24231 17.3022 9.16082 17.3018 9.07859V7.98669C17.3018 6.73254 16.1901 5.76904 14.9089 5.76904H4.0575Z" fill="#94AEFF"/>
<path d="M14.9275 8.45421C14.0135 8.45421 13.2573 9.21033 13.2573 10.1244V11.3762C13.2573 12.2902 14.0135 13.0464 14.9275 13.0464H16.6653C17.5793 13.0464 18.3324 12.2902 18.3324 11.3762V10.1244C18.3324 9.21033 17.5793 8.45421 16.6653 8.45421H14.9275ZM14.9275 9.70605H16.6653C16.9038 9.70605 17.0836 9.88589 17.0836 10.1244V11.3762C17.0836 11.6147 16.9038 11.7945 16.6653 11.7945H14.9275C14.689 11.7945 14.5092 11.6147 14.5092 11.3762V10.1244C14.5092 9.88589 14.689 9.70605 14.9275 9.70605Z" fill="#94AEFF"/>
<path d="M9.56936 12.8833C9.48712 12.883 9.40564 12.8989 9.32956 12.9302C9.25349 12.9614 9.18432 13.0073 9.12603 13.0653C9.06774 13.1233 9.02147 13.1923 8.98988 13.2682C8.95828 13.3441 8.94197 13.4255 8.94189 13.5077V16.7865C8.94198 16.8687 8.95828 16.9502 8.98988 17.0261C9.02148 17.102 9.06775 17.1709 9.12604 17.2289C9.18433 17.2869 9.25349 17.3329 9.32956 17.3641C9.40564 17.3953 9.48712 17.4112 9.56936 17.4109C9.7349 17.4107 9.89362 17.3449 10.0107 17.2278C10.1277 17.1108 10.1936 16.9521 10.1937 16.7865V13.5077C10.1936 13.3422 10.1277 13.1835 10.0107 13.0664C9.89363 12.9493 9.7349 12.8835 9.56936 12.8833Z" fill="#94AEFF"/>
<path d="M7.91762 14.5043C7.75281 14.5044 7.59473 14.5696 7.47778 14.6858C7.36049 14.8025 7.2943 14.961 7.29371 15.1265C7.29311 15.292 7.35818 15.4509 7.47463 15.5685L9.12633 17.2264C9.24307 17.3436 9.40157 17.4098 9.56705 17.4104C9.73253 17.411 9.8915 17.3459 10.0091 17.2295C10.1264 17.1128 10.1926 16.9543 10.1932 16.7888C10.1937 16.6233 10.1287 16.4643 10.0122 16.3467L8.36053 14.6889C8.3025 14.6305 8.23349 14.5841 8.15748 14.5524C8.08148 14.5208 7.99996 14.5043 7.91762 14.5043Z" fill="#94AEFF"/>
<path d="M11.2181 14.5043C11.1358 14.5044 11.0543 14.5207 10.9783 14.5524C10.9022 14.584 10.8332 14.6304 10.7752 14.6888L9.12659 16.3467C9.00972 16.4638 8.94409 16.6226 8.94409 16.7881C8.94409 16.9535 9.00972 17.1123 9.12659 17.2294C9.18487 17.2876 9.25406 17.3336 9.33018 17.3649C9.4063 17.3962 9.48785 17.4122 9.57016 17.4119C9.65247 17.4116 9.7339 17.3951 9.8098 17.3632C9.8857 17.3314 9.95455 17.2848 10.0124 17.2263L11.661 15.5684C11.7775 15.4509 11.8426 15.2919 11.842 15.1264C11.8414 14.9609 11.7752 14.8024 11.6579 14.6857C11.5409 14.5696 11.3829 14.5044 11.2181 14.5043Z" fill="#94AEFF"/>
<path d="M2.29211 4.17887C2.12656 4.17903 1.96784 4.24487 1.85078 4.36192C1.73372 4.47898 1.66789 4.63771 1.66772 4.80325V13.5569C1.66772 14.8111 2.77642 15.7715 4.05761 15.7715H5.83234C5.99789 15.7713 6.15661 15.7055 6.27367 15.5885C6.39073 15.4714 6.45656 15.3127 6.45673 15.1471C6.45656 14.9816 6.39072 14.8229 6.27366 14.7058C6.1566 14.5887 5.99789 14.5229 5.83234 14.5227H4.05761C3.38042 14.5227 2.91649 14.0659 2.91649 13.5569V4.80325C2.91633 4.63771 2.8505 4.47898 2.73344 4.36192C2.61638 4.24487 2.45766 4.17903 2.29211 4.17887ZM16.6776 11.7945C16.5953 11.7946 16.5139 11.8109 16.438 11.8425C16.3621 11.8741 16.2932 11.9204 16.2352 11.9787C16.1772 12.037 16.1312 12.1061 16.1 12.1822C16.0688 12.2583 16.0529 12.3397 16.0532 12.422V13.5569C16.0532 14.0659 15.5862 14.5227 14.909 14.5227H13.3342C13.252 14.5224 13.1705 14.5383 13.0944 14.5696C13.0183 14.6008 12.9492 14.6467 12.8909 14.7047C12.8326 14.7627 12.7863 14.8316 12.7547 14.9076C12.7231 14.9835 12.7068 15.0649 12.7067 15.1471C12.7068 15.2294 12.7231 15.3108 12.7547 15.3867C12.7863 15.4626 12.8326 15.5315 12.8909 15.5895C12.9492 15.6475 13.0183 15.6935 13.0944 15.7247C13.1705 15.7559 13.252 15.7718 13.3342 15.7715H14.909C16.1902 15.7715 17.3019 14.8111 17.302 13.5569V12.422C17.3023 12.3397 17.2864 12.2583 17.2551 12.1822C17.2239 12.1061 17.178 12.037 17.12 11.9787C17.062 11.9204 16.993 11.8741 16.9171 11.8425C16.8412 11.8109 16.7598 11.7946 16.6776 11.7945Z" fill="#94AEFF"/>
<path d="M4.05761 2.58869C2.77732 2.58869 1.66772 3.54929 1.66772 4.80326C1.66772 6.05724 2.77732 7.02091 4.05761 7.02091C4.13984 7.02124 4.22133 7.00533 4.2974 6.9741C4.37348 6.94288 4.44264 6.89694 4.50093 6.83894C4.55922 6.78093 4.60549 6.712 4.63709 6.63608C4.66869 6.56016 4.68499 6.47875 4.68507 6.39652C4.6854 6.31403 4.66939 6.23228 4.63797 6.156C4.60656 6.07973 4.56035 6.01043 4.50202 5.9521C4.44369 5.89377 4.37439 5.84757 4.29812 5.81615C4.22184 5.78474 4.1401 5.76873 4.05761 5.76906C3.38536 5.76906 2.91649 5.30668 2.91649 4.80326C2.91649 4.29986 3.38536 3.83746 4.05761 3.83746H13.5126C13.9477 3.83746 14.2877 4.17743 14.2877 4.61256V6.39652C14.2878 6.56207 14.3537 6.72078 14.4707 6.83784C14.5878 6.95491 14.7465 7.02075 14.9121 7.02091C15.0776 7.02075 15.2363 6.95491 15.3534 6.83784C15.4705 6.72078 15.5363 6.56207 15.5365 6.39652V4.61256C15.5365 3.50187 14.6233 2.58869 13.5126 2.58869H4.05761Z" fill="#94AEFF"/>
</svg>
